<svg width="210" height="40" viewBox="0 0 210 40" xmlns="http://www.w3.org/2000/svg" xmlns:xlink="http://www.w3.org/1999/xlink">
  <defs>
    <path d="M0 0h210v40H0V0zm191.292893 26.2928932l1.414214 1.4142136L200.414214 20l-7.707107-7.7071068-1.414214 1.4142136L197.585786 20l-6.292893 6.2928932zM19.9608946 21.2229105l6.1187186-.8487257.9647751-.1338227.1213113.8519747.8492175 5.9638137.1213304.8519715-.9647751.1338258-6.7534386.9367647-.5077792.0704336-5.9409881.8240728L13.0552684 30l-.1213177-.8519747-.8135428-5.7132332-.0927753-.6515079-.8991793-6.3146243L11 15.5665653l.8632212-.1197334 6.0425483-.8381651.863218-.1197365.1284533.9020945.8349527 5.8635802.2285011-.0316945zM25.422754 9.22990846l5.6825117 1.46296814L32 10.923225l-.2350508.8826637-1.4913406 5.6005822-.2343822.8802066-.8920406-.2305086-5.6708451-1.4653562-.8920947-.2305243.2327679-.8806685 1.4796772-5.59819415L24.5296754 9l.8930786.22990846zM47.4559555 25.2869263c2.4389648 0 4.2260742-1.4575196 4.4750977-3.6181641h-1.8603516c-.2563477 1.1865234-1.2744141 1.9335938-2.6147461 1.9335938-1.8017578 0-2.9223633-1.4794922-2.9223633-3.8671875 0-2.3803711 1.1206055-3.8598633 2.9150391-3.8598633 1.3330078 0 2.3510742.8203125 2.6147461 2.0874023h1.8603515c-.2197265-2.2045898-2.0727539-3.7719726-4.4750976-3.7719726-2.9956055 0-4.8486328 2.1166992-4.8486328 5.5517578 0 3.4204101 1.8603515 5.5444336 4.855957 5.5444336zm5.8852769-.2636719h1.8164062v-4.6289063c0-1.1206054.8203125-1.8530273 1.9995117-1.8530273.3076172 0 .7910157.0512695.9301758.1025391v-1.6845703c-.168457-.0512696-.4907226-.0805665-.7543945-.0805665-1.0327149 0-1.8969727.5859375-2.1166992 1.3769532h-.1245118v-1.2451172h-1.7504882v8.0126953zm8.9028549-6.730957c-1.0839843 0-1.8457031.7763672-1.9262695 1.9482422h3.7719727c-.0366211-1.1865235-.7543946-1.9482422-1.8457032-1.9482422zm1.8603516 4.5263672h1.7211914c-.3442383 1.4575195-1.6699219 2.3657226-3.5595703 2.3657226-2.3583984 0-3.7792969-1.5600586-3.7792969-4.1381836 0-2.578125 1.4428711-4.1967773 3.7646485-4.1967773 2.2851562 0 3.6547851 1.5161133 3.6547851 4.0429687v.5859375h-5.5957031v.0952149c.0439453 1.3330078.8129883 2.1679687 2.0068359 2.1679687.9008789 0 1.5234375-.3295898 1.7871094-.9228515zm5.8706284.9082031c1.0986328 0 1.9189453-.7104492 1.9189453-1.640625v-.6372071l-1.809082.1171875c-1.0180664.065918-1.4941406.432129-1.4941406 1.0839844 0 .6738281.5786133 1.0766602 1.3842773 1.0766602zm-.534668 1.4282226c-1.5454101 0-2.6513671-.9375-2.6513671-2.4023437 0-1.4501953 1.0913086-2.2851563 3.0395507-2.4023438l2.0654297-.1245117v-.6738281c0-.7836914-.5273437-1.2231445-1.508789-1.2231445-.834961 0-1.40625.2929687-1.5747071.8349609h-1.7138672c.1464844-1.4135742 1.472168-2.3144531 3.3764649-2.3144531 2.0581055 0 3.215332 1.0034179 3.215332 2.7026367v5.4711914h-1.7504883v-1.0986328h-.1245117c-.4467773.7763672-1.3256836 1.2304687-2.3730469 1.2304687zm6.5151597-10.1074218v2.0141601h-1.2670898v1.4501953h1.2670898v4.3725586c0 1.5527344.7324219 2.175293 2.5708008 2.175293.3515625 0 .6884766-.0366211.9521484-.0878906v-1.4208985c-.2197265.0219727-.3588867.0366211-.6152343.0366211-.7617188 0-1.0986329-.3515625-1.0986329-1.1425781v-3.9331055h1.7138672v-1.4501953H77.764641v-2.0141601h-1.809082zm8.133812 3.2446289c-1.0839843 0-1.8457031.7763672-1.9262695 1.9482422h3.7719727c-.0366211-1.1865235-.7543946-1.9482422-1.8457032-1.9482422zm1.8603516 4.5263672h1.7211914c-.3442383 1.4575195-1.6699219 2.3657226-3.5595703 2.3657226-2.3583985 0-3.7792969-1.5600586-3.7792969-4.1381836 0-2.578125 1.4428711-4.1967773 3.7646484-4.1967773 2.2851563 0 3.6547852 1.5161133 3.6547852 4.0429687v.5859375h-5.5957031v.0952149c.0439453 1.3330078.8129883 2.1679687 2.0068359 2.1679687.9008789 0 1.5234375-.3295898 1.7871094-.9228515zm6.0317612 2.3364257c-2.0288086 0-3.2958984-1.5966797-3.2958984-4.1455078 0-2.5341797 1.274414-4.1308594 3.2958984-4.1308594 1.0986328 0 2.006836.5273438 2.4316406 1.40625h.1245118v-4.3725585h1.8164062v11.1108398h-1.7578125v-1.2670898h-.1245117c-.4541016.8789062-1.3769531 1.3989257-2.4902344 1.3989257zm.5639649-6.730957c-1.237793 0-1.9995118.9814453-1.9995118 2.5927734 0 1.6186524.7543946 2.5927735 1.9995118 2.5927735 1.2524414 0 2.0141601-.9814453 2.0141601-2.5927735 0-1.5966796-.769043-2.5927734-2.0141601-2.5927734zm12.5688933 6.7602539c-2.402344 0-3.852539-1.5673828-3.852539-4.1674805 0-2.5854492 1.472168-4.1674804 3.852539-4.1674804 2.387696 0 3.852539 1.574707 3.852539 4.1674804 0 2.6000977-1.457519 4.1674805-3.852539 4.1674805zm0-1.5234375c1.26709 0 1.984863-.9667969 1.984863-2.644043 0-1.6699218-.725097-2.6440429-1.984863-2.6440429-1.26709 0-1.992187.9741211-1.992187 2.6440429 0 1.6772461.725097 2.644043 1.992187 2.644043zm5.189476 1.3623047h1.816407v-4.6655273c0-1.1791993.681152-1.9262696 1.765136-1.9262696 1.105957 0 1.618653.6152344 1.618653 1.8383789v4.753418h1.816406v-5.1855469c0-1.9116211-.974121-2.9882812-2.761231-2.9882812-1.193847 0-1.999511.5493164-2.380371 1.4428711h-.124511v-1.2817383h-1.750489v8.0126953zm14.282761-10.5688477h-1.882324v6.928711c0 2.3071289 1.669922 3.9038086 4.343262 3.9038086 2.673339 0 4.343261-1.5966797 4.343261-3.9038086v-6.928711h-1.889648v6.7529297c0 1.4282227-.886231 2.3876953-2.453613 2.3876953-1.567383 0-2.460938-.9594726-2.460938-2.3876953v-6.7529297zm8.749046 10.5688477h1.816407v-4.6655273c0-1.1791993.681152-1.9262696 1.765136-1.9262696 1.105957 0 1.618653.6152344 1.618653 1.8383789v4.753418h1.816406v-5.1855469c0-1.9116211-.974121-2.9882812-2.76123-2.9882812-1.193848 0-1.999512.5493164-2.380372 1.4428711h-.124511v-1.2817383h-1.750489v8.0126953zm8.697777 0h1.809082v-8.0126953h-1.809082v8.0126953zm.900879-9.3164063c.666504 0 1.120606-.4248046 1.120606-1.0034179 0-.5786133-.454102-1.003418-1.120606-1.003418-.65918 0-1.120605.4248047-1.120605 1.003418s.461425 1.0034179 1.120605 1.0034179zm9.649925 1.303711h-1.918945l-1.838379 6.196289h-.124511l-1.853028-6.196289h-1.948242l2.849121 8.0126953h1.999512l2.834472-8.0126953zm4.08352 1.2817383c-1.083985 0-1.845704.7763672-1.92627 1.9482422h3.771973c-.036621-1.1865235-.754395-1.9482422-1.845703-1.9482422zm1.860351 4.5263672h1.721191c-.344238 1.4575195-1.669921 2.3657226-3.55957 2.3657226-2.358398 0-3.779297-1.5600586-3.779297-4.1381836 0-2.578125 1.442871-4.1967773 3.764649-4.1967773 2.285156 0 3.654785 1.5161133 3.654785 4.0429687v.5859375h-5.595703v.0952149c.043945 1.3330078.812988 2.1679687 2.006836 2.1679687.900879 0 1.523437-.3295898 1.787109-.9228515zm3.131371 2.2045898h1.816406v-4.6289063c0-1.1206054.820312-1.8530273 1.999512-1.8530273.307617 0 .791015.0512695.930175.1025391v-1.6845703c-.168457-.0512696-.490722-.0805665-.754394-.0805665-1.032715 0-1.896973.5859375-2.116699 1.3769532h-.124512v-1.2451172h-1.750488v8.0126953zm5.38723-5.7202148c0 1.208496.725097 1.9189453 2.263183 2.2705078l1.420899.3295898c.761718.168457 1.105957.4541016 1.105957.9082031 0 .5932618-.637207.9960938-1.552735.9960938-.908203 0-1.472168-.3515625-1.647949-.9448242H166.8416c.13916 1.4575195 1.398925 2.3217773 3.398437 2.3217773s3.413086-1.0253906 3.413086-2.5634766c0-1.1791992-.710449-1.8383789-2.241211-2.1826171l-1.413574-.3222657c-.805664-.1831054-1.186524-.4614257-1.186524-.9155273 0-.5786133.622559-.9741211 1.450196-.9741211.849609 0 1.384277.3588867 1.516113.9228516h1.706543c-.131836-1.4575196-1.325684-2.2998047-3.229981-2.2998047-1.889648 0-3.208007 1.0034179-3.208007 2.4536133zm11.312523-1.0107422c-1.083985 0-1.845704.7763672-1.92627 1.9482422h3.771973c-.036621-1.1865235-.754395-1.9482422-1.845703-1.9482422zm1.860351 4.5263672h1.721192c-.344239 1.4575195-1.669922 2.3657226-3.559571 2.3657226-2.358398 0-3.779297-1.5600586-3.779297-4.1381836 0-2.578125 1.442871-4.1967773 3.764649-4.1967773 2.285156 0 3.654785 1.5161133 3.654785 4.0429687v.5859375h-5.595703v.0952149c.043945 1.3330078.812988 2.1679687 2.006836 2.1679687.900879 0 1.523437-.3295898 1.787109-.9228515z" id="brand-sticker_standard-path"/>
  </defs>
  <g fill="none" fill-rule="evenodd">
    <g opacity=".4" fill="#000">
      <path d="M19.9608946 21.2229105l6.1187186-.8487257.9647751-.1338227.1213113.8519747.8492175 5.9638137.1213304.8519715-.9647751.1338258-6.7534386.9367647-.50777924.0704336-5.94098802.8240728L13.05526838 30l-.1213177-.8519747-.81354273-5.7132332-.09277535-.6515079-.89917932-6.31462432L11 15.5665653l.8632212-.11973338 6.0425483-.83816513.86321802-.11973656.12845328.90209458.83495268 5.86358016.22850113-.0316945zM25.422754 9.22990846l5.6825117 1.46296817L32 10.923225l-.2350508.88266374-1.4913406 5.60058213-.2343822.8802066-.8920406-.2305086-5.6708451-1.46535617-.8920947-.23052432.2327679-.8806685 1.4796772-5.59819413L24.5296754 9l.8930786.22990846zM47.4559555 25.2869263c2.4389648 0 4.2260742-1.4575196 4.4750977-3.6181641h-1.8603516c-.2563477 1.1865234-1.2744141 1.9335938-2.6147461 1.9335938-1.8017578 0-2.9223633-1.4794922-2.9223633-3.8671875 0-2.38037114 1.1206055-3.85986332 2.9150391-3.85986332 1.3330078 0 2.3510742.8203125 2.6147461 2.08740234h1.8603515c-.2197265-2.20458984-2.0727539-3.77197266-4.4750976-3.77197266-2.9956055 0-4.8486328 2.11669922-4.8486328 5.55175784 0 3.4204101 1.8603515 5.5444336 4.855957 5.5444336zm5.8852769-.2636719h1.8164062v-4.6289063c0-1.1206054.8203125-1.8530273 1.9995117-1.8530273.3076172 0 .7910157.05126953.9301758.10253906v-1.6845703c-.168457-.05126954-.4907226-.08056642-.7543945-.08056642-1.0327149 0-1.8969727.5859375-2.1166992 1.37695313h-.1245118v-1.2451172h-1.7504882v8.01269533zm8.9028549-6.73095704c-1.0839843 0-1.8457031.77636724-1.9262695 1.94824224h3.7719727c-.0366211-1.1865235-.7543946-1.94824224-1.8457032-1.94824224zm1.8603516 4.52636724h1.7211914c-.3442383 1.4575195-1.6699219 2.3657226-3.5595703 2.3657226-2.3583984 0-3.7792969-1.5600586-3.7792969-4.1381836 0-2.578125 1.4428711-4.19677733 3.7646485-4.19677733 2.2851562 0 3.6547851 1.51611328 3.6547851 4.04296873v.5859375h-5.5957031v.0952149c.0439453 1.3330078.8129883 2.1679687 2.0068359 2.1679687.9008789 0 1.5234375-.3295898 1.7871094-.9228515zm5.8706284.9082031c1.0986328 0 1.9189453-.7104492 1.9189453-1.640625v-.6372071l-1.809082.1171875c-1.0180664.065918-1.4941406.432129-1.4941406 1.0839844 0 .6738281.5786133 1.0766602 1.3842773 1.0766602zm-.534668 1.4282226c-1.5454101 0-2.6513671-.9375-2.6513671-2.4023437 0-1.4501953 1.0913086-2.2851563 3.0395507-2.4023438l2.0654297-.1245117v-.6738281c0-.78369142-.5273437-1.22314454-1.508789-1.22314454-.834961 0-1.40625.29296875-1.5747071.83496094h-1.7138672c.1464844-1.41357422 1.472168-2.31445313 3.3764649-2.31445313 2.0581055 0 3.215332 1.00341797 3.215332 2.70263673v5.4711914h-1.7504883v-1.0986328h-.1245117c-.4467773.7763672-1.3256836 1.2304687-2.3730469 1.2304687zm6.5151597-10.10742184v2.01416015h-1.2670898v1.45019535h1.2670898v4.37255857c0 1.5527344.7324219 2.175293 2.5708008 2.175293.3515625 0 .6884766-.0366211.9521484-.0878906v-1.4208985c-.2197265.0219727-.3588867.0366211-.6152343.0366211-.7617188 0-1.0986329-.3515625-1.0986329-1.1425781v-3.93310546h1.7138672V17.0618286H77.764641v-2.01416014h-1.809082zm8.133812 3.2446289c-1.0839843 0-1.8457031.77636724-1.9262695 1.94824224h3.7719727c-.0366211-1.1865235-.7543946-1.94824224-1.8457032-1.94824224zm1.8603516 4.52636724h1.7211914c-.3442383 1.4575195-1.6699219 2.3657226-3.5595703 2.3657226-2.3583985 0-3.7792969-1.5600586-3.7792969-4.1381836 0-2.578125 1.4428711-4.19677733 3.7646484-4.19677733 2.2851563 0 3.6547852 1.51611328 3.6547852 4.04296873v.5859375h-5.5957031v.0952149c.0439453 1.3330078.8129883 2.1679687 2.0068359 2.1679687.9008789 0 1.5234375-.3295898 1.7871094-.9228515zm6.0317612 2.3364257c-2.0288086 0-3.2958984-1.5966797-3.2958984-4.1455078 0-2.53417967 1.274414-4.13085936 3.2958984-4.13085936 1.0986328 0 2.006836.52734375 2.4316406 1.40625h.1245118v-4.3725586h1.8164062V25.0232544h-1.7578125v-1.2670898h-.1245117c-.4541016.8789062-1.3769531 1.3989257-2.4902344 1.3989257zm.5639649-6.730957c-1.237793 0-1.9995118.9814453-1.9995118 2.5927734 0 1.6186524.7543946 2.5927735 1.9995118 2.5927735 1.2524414 0 2.0141601-.9814453 2.0141601-2.5927735 0-1.5966796-.769043-2.5927734-2.0141601-2.5927734zm12.5688935 6.7602539c-2.4023437 0-3.852539-1.5673828-3.852539-4.1674805 0-2.58544918 1.4721679-4.16748043 3.852539-4.16748043 2.3876953 0 3.8525391 1.57470703 3.8525391 4.16748043 0 2.6000977-1.4575196 4.1674805-3.8525391 4.1674805zm0-1.5234375c1.2670899 0 1.9848633-.9667969 1.9848633-2.644043 0-1.6699218-.7250977-2.64404293-1.9848633-2.64404293-1.2670898 0-1.9921875.97412113-1.9921875 2.64404293 0 1.6772461.7250977 2.644043 1.9921875 2.644043zm5.1894761 1.3623047h1.8164067v-4.6655273c0-1.1791993.681152-1.92626958 1.765136-1.92626958 1.105957 0 1.618653.61523438 1.618653 1.83837888v4.753418h1.816406v-5.1855469c0-1.91162107-.974121-2.98828123-2.761231-2.98828123-1.193847 0-1.999511.5493164-2.380371 1.4428711h-.124511v-1.2817383h-1.7504887v8.01269533zm14.2827607-10.56884766h-1.882324v6.92871096c0 2.3071289 1.669922 3.9038086 4.343262 3.9038086 2.673339 0 4.343261-1.5966797 4.343261-3.9038086v-6.92871096h-1.889648v6.75292966c0 1.4282227-.886231 2.3876953-2.453613 2.3876953-1.567383 0-2.460938-.9594726-2.460938-2.3876953v-6.75292966zm8.749046 10.56884766h1.816407v-4.6655273c0-1.1791993.681152-1.92626958 1.765136-1.92626958 1.105957 0 1.618653.61523438 1.618653 1.83837888v4.753418h1.816406v-5.1855469c0-1.91162107-.974121-2.98828123-2.76123-2.98828123-1.193848 0-1.999512.5493164-2.380372 1.4428711h-.124511v-1.2817383h-1.750489v8.01269533zm8.697777 0h1.809082v-8.01269532h-1.809082v8.01269532zm.900879-9.31640626c.666504 0 1.120606-.42480468 1.120606-1.00341796 0-.5786133-.454102-1.00341797-1.120606-1.00341797-.65918 0-1.120605.4248047-1.120605 1.003418 0 .57861328.461425 1.00341796 1.120605 1.00341796zm9.649925 1.30371094h-1.918945l-1.838379 6.19628902h-.124511l-1.853028-6.19628902h-1.948242l2.849121 8.01269532h1.999512l2.834472-8.01269532zm4.08352 1.28173828c-1.083985 0-1.845704.77636724-1.92627 1.94824224h3.771973c-.036621-1.1865235-.754395-1.94824224-1.845703-1.94824224zm1.860351 4.52636724h1.721191c-.344238 1.4575195-1.669921 2.3657226-3.55957 2.3657226-2.358398 0-3.779297-1.5600586-3.779297-4.1381836 0-2.578125 1.442871-4.19677733 3.764649-4.19677733 2.285156 0 3.654785 1.51611328 3.654785 4.04296873v.5859375h-5.595703v.0952149c.043945 1.3330078.812988 2.1679687 2.006836 2.1679687.900879 0 1.523437-.3295898 1.787109-.9228515zm3.131371 2.2045898h1.816406v-4.6289063c0-1.1206054.820312-1.8530273 1.999512-1.8530273.307617 0 .791015.05126953.930175.10253906v-1.6845703c-.168457-.05126954-.490722-.08056642-.754394-.08056642-1.032715 0-1.896973.5859375-2.116699 1.37695313h-.124512v-1.2451172h-1.750488v8.01269533zm5.38723-5.7202148c0 1.208496.725097 1.9189453 2.263183 2.2705078l1.420899.3295898c.761718.168457 1.105957.4541016 1.105957.9082031 0 .5932618-.637207.9960938-1.552735.9960938-.908203 0-1.472168-.3515625-1.647949-.9448242H166.8416c.13916 1.4575195 1.398925 2.3217773 3.398437 2.3217773s3.413086-1.0253906 3.413086-2.5634766c0-1.1791992-.710449-1.8383789-2.241211-2.1826171l-1.413574-.3222657c-.805664-.1831054-1.186524-.4614257-1.186524-.9155273 0-.5786133.622559-.9741211 1.450196-.9741211.849609 0 1.384277.3588867 1.516113.9228516h1.706543c-.131836-1.45751957-1.325684-2.29980473-3.229981-2.29980473-1.889648 0-3.208007 1.00341797-3.208007 2.45361333zm11.312523-1.01074224c-1.083985 0-1.845704.77636724-1.92627 1.94824224h3.771973c-.036621-1.1865235-.754395-1.94824224-1.845703-1.94824224zm1.860351 4.52636724h1.721192c-.344239 1.4575195-1.669922 2.3657226-3.559571 2.3657226-2.358398 0-3.779297-1.5600586-3.779297-4.1381836 0-2.578125 1.442871-4.19677733 3.764649-4.19677733 2.285156 0 3.654785 1.51611328 3.654785 4.04296873v.5859375h-5.595703v.0952149c.043945 1.3330078.812988 2.1679687 2.006836 2.1679687.900879 0 1.523437-.3295898 1.787109-.9228515z"/>
      <path fill-rule="nonzero" d="M191.292893 26.2928932l1.414214 1.4142136L200.414214 20l-7.707107-7.70710678-1.414214 1.41421356L197.585786 20"/>
    </g>
    <use fill="#FFF" xlink:href="#brand-sticker_standard-path"/>
  </g>
</svg>
