<?xml version="1.0" encoding="UTF-8"?>
<svg width="58px" height="58px" viewBox="0 0 58 58" version="1.1" xmlns="http://www.w3.org/2000/svg" xmlns:xlink="http://www.w3.org/1999/xlink">
    <g id="Tag-Variations" stroke="none" stroke-width="1" fill="none" fill-rule="evenodd">
      <path d="M43.3985,28.6729774 L42.4636328,26.3372014 L46.3119096,20.1190446 L46.2888952,20.061555 L40.82678,22.2478302 L39.6761064,19.3730254 L50.0469704,15.222035 L50.9933912,17.5865326 L47.219772,23.7414462 L47.2428328,23.7989358 L52.6186904,21.6471822 L53.769364,24.521987 L43.3985,28.6729774 Z M52.0647672,37.9397534 L41.400748,34.6131982 L42.378164,31.4798062 L53.0422296,34.806315 L52.0647672,37.9397534 Z M46.316132,46.6776158 L39.7321576,41.698339 L39.6850152,41.738475 L43.5448456,49.0352462 L40.7854376,51.3828542 L36.1295688,40.6773998 L39.3724648,37.9184558 L49.1935352,44.229691 L46.316132,46.6776158 Z M25.5438728,53.7485582 L25.4942712,51.1402286 L30.0918152,51.0527182 L30.0575256,49.2493358 L25.746316,49.331371 L25.7015864,46.978427 L30.0127496,46.8963918 L29.9785528,45.1007118 L25.3810088,45.1882222 L25.3314072,42.5798462 L33.210684,42.4299278 L33.4231496,53.5986398 L25.5438728,53.7485582 Z M15.7555144,50.3131022 L12.100772,46.9561086 C9.9056808,44.939843 9.7246744,42.870867 11.3429672,41.1091054 C12.2332904,40.1398094 13.5597272,39.6341886 14.7977256,40.014483 L16.10022,35.4607406 L18.8027416,37.943187 L17.5679448,41.8967918 L18.3604568,42.6247614 L20.8952424,39.8651678 L23.3126824,42.0857326 L15.7555144,50.3131022 Z M8.1029944,34.6973678 C5.8447528,34.8011646 4.332948,32.933147 4.2107304,30.272803 C4.0742216,27.3031102 5.3588984,25.577819 7.5235976,25.4628398 L7.6611272,28.4557326 C6.966148,28.5109486 6.5879416,29.2180382 6.6284488,30.0996846 C6.6679352,30.958131 7.0485544,31.4831006 7.6053544,31.4575342 C8.1390008,31.4329886 8.396428,30.963931 8.533308,29.8958958 L8.725868,28.352539 C9.0053352,26.1697438 9.9873448,25.1093646 11.7969912,25.0262158 C14.0783864,24.9213518 15.6200728,26.764731 15.7565816,29.7344238 C15.8940648,32.7273166 14.7233464,34.5713454 12.4964712,34.6814526 L12.3539304,31.5802622 C12.9838104,31.458323 13.365868,30.6657646 13.3253608,29.7841646 C13.2802136,28.8020158 12.8581128,28.2169118 12.316764,28.2417822 C11.7986152,28.2655854 11.593156,28.6857838 11.4317304,29.894411 L11.2366184,31.383619 C10.975108,33.449347 9.8507432,34.617003 8.1029944,34.6973678 Z M12.8489256,10.0157694 L14.8321544,11.7109934 L11.8440408,15.2066766 L13.2152536,16.378787 L16.0172104,13.100859 L17.8062088,14.6301102 L15.0042984,17.9079918 L16.369572,19.0750446 L19.3576856,15.5794078 L21.340868,17.2746318 L16.2199784,23.2655214 L7.7279432,16.0067054 L12.8489256,10.0157694 Z M30.9722088,10.9948558 L33.657748,4.32276784 L36.7029336,5.54847024 L34.1532536,11.8829982 C33.7138456,12.9746974 34.0125688,13.787579 34.9965272,14.183603 C35.9804392,14.5796734 36.7590312,14.2003998 37.1984392,13.1087006 L39.7481192,6.77417264 L42.7933048,7.99982864 L40.1077656,14.671963 C39.1566584,17.0348366 36.7181992,17.8059118 33.981852,16.7045614 C31.2455048,15.6031182 30.0211016,13.3577758 30.9722088,10.9948558 Z M24.1495992,6.87513904 C25.6483192,6.87513904 26.8633032,8.09007664 26.8633032,9.58884304 C26.8633032,11.087563 25.6483192,12.3025006 24.1495992,12.3025006 C22.6509256,12.3025006 21.4359416,11.087563 21.4359416,9.58884304 C21.4359416,8.09007664 22.6509256,6.87513904 24.1495992,6.87513904 Z" id="Combined-Shape" fill-opacity="0.15" fill="#000000"></path>
      <path d="M43.3985,28.6729774 L42.4636328,26.3372014 L46.3119096,20.1190446 L46.2888952,20.061555 L40.82678,22.2478302 L39.6761064,19.3730254 L50.0469704,15.222035 L50.9933912,17.5865326 L47.219772,23.7414462 L47.2428328,23.7989358 L52.6186904,21.6471822 L53.769364,24.521987 L43.3985,28.6729774 Z M52.0647672,37.9397534 L41.400748,34.6131982 L42.378164,31.4798062 L53.0422296,34.806315 L52.0647672,37.9397534 Z M46.316132,46.6776158 L39.7321576,41.698339 L39.6850152,41.738475 L43.5448456,49.0352462 L40.7854376,51.3828542 L36.1295688,40.6773998 L39.3724648,37.9184558 L49.1935352,44.229691 L46.316132,46.6776158 Z M25.5438728,53.7485582 L25.4942712,51.1402286 L30.0918152,51.0527182 L30.0575256,49.2493358 L25.746316,49.331371 L25.7015864,46.978427 L30.0127496,46.8963918 L29.9785528,45.1007118 L25.3810088,45.1882222 L25.3314072,42.5798462 L33.210684,42.4299278 L33.4231496,53.5986398 L25.5438728,53.7485582 Z M15.7555144,50.3131022 L12.100772,46.9561086 C9.9056808,44.939843 9.7246744,42.870867 11.3429672,41.1091054 C12.2332904,40.1398094 13.5597272,39.6341886 14.7977256,40.014483 L16.10022,35.4607406 L18.8027416,37.943187 L17.5679448,41.8967918 L18.3604568,42.6247614 L20.8952424,39.8651678 L23.3126824,42.0857326 L15.7555144,50.3131022 Z M8.1029944,34.6973678 C5.8447528,34.8011646 4.332948,32.933147 4.2107304,30.272803 C4.0742216,27.3031102 5.3588984,25.577819 7.5235976,25.4628398 L7.6611272,28.4557326 C6.966148,28.5109486 6.5879416,29.2180382 6.6284488,30.0996846 C6.6679352,30.958131 7.0485544,31.4831006 7.6053544,31.4575342 C8.1390008,31.4329886 8.396428,30.963931 8.533308,29.8958958 L8.725868,28.352539 C9.0053352,26.1697438 9.9873448,25.1093646 11.7969912,25.0262158 C14.0783864,24.9213518 15.6200728,26.764731 15.7565816,29.7344238 C15.8940648,32.7273166 14.7233464,34.5713454 12.4964712,34.6814526 L12.3539304,31.5802622 C12.9838104,31.458323 13.365868,30.6657646 13.3253608,29.7841646 C13.2802136,28.8020158 12.8581128,28.2169118 12.316764,28.2417822 C11.7986152,28.2655854 11.593156,28.6857838 11.4317304,29.894411 L11.2366184,31.383619 C10.975108,33.449347 9.8507432,34.617003 8.1029944,34.6973678 L8.1029944,34.6973678 Z M12.8489256,10.0157694 L14.8321544,11.7109934 L11.8440408,15.2066766 L13.2152536,16.378787 L16.0172104,13.100859 L17.8062088,14.6301102 L15.0042984,17.9079918 L16.369572,19.0750446 L19.3576856,15.5794078 L21.340868,17.2746318 L16.2199784,23.2655214 L7.7279432,16.0067054 L12.8489256,10.0157694 Z M24.1495992,6.87513904 C25.6483192,6.87513904 26.8633032,8.09007664 26.8633032,9.58884304 C26.8633032,11.087563 25.6483192,12.3025006 24.1495992,12.3025006 C22.6509256,12.3025006 21.4359416,11.087563 21.4359416,9.58884304 C21.4359416,8.09007664 22.6509256,6.87513904 24.1495992,6.87513904 L24.1495992,6.87513904 Z M30.9722088,10.9948558 L33.657748,4.32276784 L36.7029336,5.54847024 L34.1532536,11.8829982 C33.7138456,12.9746974 34.0125688,13.787579 34.9965272,14.183603 C35.9804392,14.5796734 36.7590312,14.2003998 37.1984392,13.1087006 L39.7481192,6.77417264 L42.7933048,7.99982864 L40.1077656,14.671963 C39.1566584,17.0348366 36.7181992,17.8059118 33.981852,16.7045614 C31.2455048,15.6031182 30.0211016,13.3577758 30.9722088,10.9948558 L30.9722088,10.9948558 Z M55.7169112,17.7087966 C57.2318712,21.2905054 57.9999768,25.0894126 57.9999768,29.0000046 C57.9999768,32.9105966 57.2318712,36.7094574 55.7169112,40.2911662 C54.2558216,43.7456462 52.1661976,46.8460014 49.5060856,49.5061134 C46.84602,52.166179 43.7456184,54.255803 40.2911848,55.716939 C36.709476,57.231899 32.9106152,58.0000046 29.0000232,58.0000046 C25.0893848,58.0000046 21.290524,57.231899 17.7088152,55.716939 C14.2543816,54.255803 11.15398,52.166179 8.4939144,49.5061134 C5.8338024,46.8460014 3.7441784,43.7456462 2.2830888,40.2911662 C0.7681288,36.7094574 2.32e-05,32.9105966 2.32e-05,29.0000046 C2.32e-05,25.0894126 0.7681288,21.2905054 2.2830888,17.7087966 C3.7441784,14.2543166 5.8338024,11.1540078 8.4939144,8.49389584 C11.15398,5.83378384 14.2543816,3.74420624 17.7088152,2.28307024 C21.290524,0.76815664 25.0893848,4.64e-06 29.0000232,4.64e-06 C32.9106152,4.64e-06 36.709476,0.76815664 40.2911848,2.28307024 C43.7456184,3.74420624 46.84602,5.83378384 49.5060856,8.49389584 C52.1661976,11.1540078 54.2558216,14.2543166 55.7169112,17.7087966 Z M13.8484048,43.3368762 C13.288032,43.9469434 13.3238064,44.7891962 13.9737776,45.386225 L14.9772704,46.3080074 L16.8940544,44.2212138 L15.8962688,43.304721 C15.217808,42.6814762 14.419264,42.7153946 13.8484048,43.3368762 Z" id="Fill-3" fill="#FFFFFF"></path>
    </g>
</svg>
