<?xml version="1.0" encoding="UTF-8"?>
<svg width="114px" height="28px" viewBox="0 0 114 28" version="1.1" xmlns="http://www.w3.org/2000/svg" xmlns:xlink="http://www.w3.org/1999/xlink">
    <g id="Tag-Variations" stroke="none" stroke-width="1" fill="none" fill-rule="evenodd">
      <path d="M15.788866,26.15625 L15.788866,9.13415688 L21.1074785,9.13415688 L21.1074785,11.9023499 L21.401239,11.9023499 C22.1897542,9.8835572 23.9832398,8.73651589 26.3642465,8.73651589 C30.1058285,8.73651589 32.1157693,10.969423 32.1157693,15.1599473 L32.1157693,26.15625 L26.642546,26.15625 L26.642546,16.3681641 C26.642546,14.1964325 25.7921865,13.1564484 24.014162,13.1564484 C22.2979818,13.1564484 21.2466282,14.395253 21.2466282,16.4293396 L21.2466282,26.15625 L15.788866,26.15625 Z" id="Path" fill="#FFFFFF"></path>
      <path d="M21.2074785,11.8023499 L21.3333814,11.8023499 C22.150595,9.78207437 23.9699715,8.63651589 26.3642465,8.63651589 C30.1675702,8.63651589 32.2157693,10.9208666 32.2157693,15.1599473 L32.2157693,26.15625 L32.1157693,26.25625 L26.642546,26.25625 L26.542546,26.15625 L26.542546,16.3681641 C26.542546,14.2473919 25.7317554,13.2564484 24.014162,13.2564484 C22.3558599,13.2564484 21.3466282,14.4487712 21.3466282,16.4293396 L21.3466282,26.15625 L21.2466282,26.25625 L15.788866,26.25625 L15.688866,26.15625 L15.688866,9.13415688 L15.788866,9.03415688 L21.1074785,9.03415688 L21.2074785,9.13415688 L21.2074785,11.8023499 Z" id="Path" stroke="#000000" stroke-width="0.2"></path>
      <path d="M84.2550057,14.3187836 C84.2550057,10.8164841 87.0689227,8.67534035 91.6763253,8.67534035 C96.299189,8.67534035 98.927573,10.571782 99.0358006,13.9823182 L93.9336434,13.9823182 C93.8254158,13.0646851 92.9441341,12.4988114 91.6608642,12.4988114 C90.4548998,12.4988114 89.6200013,13.0646851 89.6200013,13.8599671 C89.6200013,14.5787797 90.2075225,15.0223023 91.5217145,15.2822983 L94.3820148,15.8328782 C97.984447,16.5211029 99.5460163,17.9893158 99.5460163,20.6504517 C99.5460163,24.2751022 96.5620274,26.5385971 91.7536307,26.5385971 C86.9761562,26.5385971 84.1467781,24.6268616 83.9612451,21.2775009 L89.2953186,21.2775009 C89.4653905,22.2104279 90.3466722,22.7151261 91.800014,22.7151261 C93.114206,22.7151261 93.9491044,22.1798401 93.9491044,21.3692642 C93.9491044,20.6504517 93.4388887,20.3139862 91.9082415,20.0081085 L89.2953186,19.4728226 C85.9711858,18.7845978 84.2550057,17.0563889 84.2550057,14.3187836 Z" id="Path" fill="#FFFFFF"></path>
      <path d="M84.1550057,14.3187836 C84.1550057,10.7538827 87.0193703,8.57534035 91.6763253,8.57534035 C96.347414,8.57534035 99.0255635,10.5068687 99.1357503,13.9791464 L99.0358006,14.0823182 L93.9336434,14.0823182 L93.8343317,13.9940312 C93.7333548,13.137875 92.903719,12.5988114 91.6608642,12.5988114 C90.5084334,12.5988114 89.7200013,13.1271347 89.7200013,13.8599671 C89.7200013,14.5199389 90.2709486,14.9329122 91.5406165,15.184101 L94.4007798,15.7346546 C98.0401849,16.4299428 99.6460163,17.9307691 99.6460163,20.6504517 C99.6460163,24.3405164 96.6079801,26.6385971 91.7536307,26.6385971 C86.9294695,26.6385971 84.0503631,24.6943489 83.8613982,21.2830318 L83.9612451,21.1775009 L89.2953186,21.1775009 L89.3936972,21.2595666 C89.5534466,22.1358693 90.3889163,22.6151261 91.800014,22.6151261 C93.0588131,22.6151261 93.8491044,22.1169155 93.8491044,21.3692642 C93.8491044,20.715985 93.3808096,20.4043571 91.8881723,20.106074 L89.2750447,19.5707459 C85.895504,18.8710495 84.1550057,17.0981563 84.1550057,14.3187836 Z" id="Path" stroke="#000000" stroke-width="0.2"></path>
      <path d="M15.8257809,9.13415688 L15.8257809,26.15625 L10.7850313,26.15625 L10.7850313,23.388057 L10.5066178,23.388057 C9.75929734,25.4068497 8.05950968,26.553891 5.80289503,26.553891 C2.2567863,26.553891 0.351851852,24.3209839 0.351851852,20.1304596 L0.351851852,9.13415688 L5.53913488,9.13415688 L5.53913488,18.9222428 C5.53913488,21.0939743 6.34506868,22.1339585 8.030203,22.1339585 C9.65672395,22.1339585 10.6531512,20.8951538 10.6531512,18.8610672 L10.6531512,9.13415688 L15.8257809,9.13415688 Z" id="Path" fill="#FFFFFF"></path>
      <path d="M10.6850313,23.488057 L10.5757908,23.488057 C9.80082694,25.5075824 8.07474479,26.653891 5.80289503,26.653891 C2.19389282,26.653891 0.251851852,24.3685436 0.251851852,20.1304596 L0.251851852,9.13415688 L0.351851852,9.03415688 L5.53913488,9.03415688 L5.63913488,9.13415688 L5.63913488,18.9222428 C5.63913488,21.0438483 6.40692073,22.0339585 8.030203,22.0339585 C9.59736424,22.0339585 10.5531512,20.8425319 10.5531512,18.8610672 L10.5531512,9.13415688 L10.6531512,9.03415688 L15.8257809,9.03415688 L15.9257809,9.13415688 L15.9257809,26.15625 L15.8257809,26.25625 L10.7850313,26.25625 L10.6850313,26.15625 L10.6850313,23.488057 Z" id="Path" stroke="#000000" stroke-width="0.2"></path>
      <path d="M77.3830426,13.5082078 L78.2952465,13.5082078 C79.145606,9.99061439 80.645331,8.67534035 83.8303141,8.67534035 C84.7889012,8.67534035 85.6083386,8.78239754 86.257704,9.0118058 L86.257704,14.5176041 C85.500111,14.2117264 84.3559909,14.0129059 83.3664816,14.0129059 C79.0992228,14.0129059 77.3211983,15.3740616 77.3211983,18.6469529 L77.3211983,22.4857178 L82.0677506,22.4857178 L82.0677506,26.15625 L69.0031358,26.15625 L69.0031358,22.4857178 L72.1262745,22.4857178 L72.1262745,12.8046891 L68.6939142,12.8046891 L68.6939142,9.13415688 L77.3830426,9.13415688 L77.3830426,13.5082078 Z" id="Path" fill="#FFFFFF"></path>
      <path d="M77.4830426,13.4082078 L78.216729,13.4082078 C79.0817213,9.90197056 80.622728,8.57534035 83.8303141,8.57534035 C84.8172423,8.57534035 85.6409442,8.68785956 86.2910145,8.91751682 L86.357704,9.0118058 L86.357704,14.5176041 L86.2202654,14.6103314 C85.4766359,14.3100915 84.345591,14.1129059 83.3664816,14.1129059 C79.1486115,14.1129059 77.4211983,15.4366672 77.4211983,18.6469529 L77.4211983,22.3857178 L82.0677506,22.3857178 L82.1677506,22.4857178 L82.1677506,26.15625 L82.0677506,26.25625 L69.0031358,26.25625 L68.9031358,26.15625 L68.9031358,22.4857178 L69.0031358,22.3857178 L72.0262745,22.3857178 L72.0262745,12.9046891 L68.6939142,12.9046891 L68.5939142,12.8046891 L68.5939142,9.13415688 L68.6939142,9.03415688 L77.3830426,9.03415688 L77.4830426,9.13415688 L77.4830426,13.4082078 Z" id="Path" stroke="#000000" stroke-width="0.2"></path>
      <path d="M108.317078,21.139856 L113.419235,21.139856 C113.187319,24.2598084 109.894108,26.553891 105.611388,26.553891 C100.370081,26.553891 97.3860925,23.8009918 97.3860925,18.9681244 L97.3860925,16.1540497 C97.3860925,11.7035294 100.679303,8.73651589 105.611388,8.73651589 C110.234252,8.73651589 113.388313,11.7188233 113.388313,16.0928742 L113.388313,18.8457733 L102.704705,18.8457733 L102.704705,19.9010514 C102.704705,21.5833786 103.864286,22.7151261 105.580466,22.7151261 C106.956503,22.7151261 108.131545,22.0421951 108.317078,21.139856 Z M105.4877,12.5752808 C103.740597,12.5752808 102.704705,13.7682038 102.704705,15.7411149 L108.177928,15.7411149 C108.177928,13.7682038 107.172958,12.5752808 105.4877,12.5752808 Z" id="Combined-Shape" fill="#FFFFFF"></path>
      <path d="M102.804705,18.9457733 L102.804705,19.9010514 C102.804705,21.5265871 103.91794,22.6151261 105.580466,22.6151261 C106.916186,22.6151261 108.045055,21.9663153 108.219127,21.119716 L108.317078,21.039856 L113.419235,21.039856 L113.51896,21.1472689 C113.282347,24.3304123 109.936125,26.653891 105.611388,26.653891 C100.316944,26.653891 97.2860925,23.8584444 97.2860925,18.9681244 L97.2860925,16.1540497 C97.2860925,11.6468527 100.625148,8.63651589 105.611388,8.63651589 C110.288719,8.63651589 113.488313,11.6627325 113.488313,16.0928742 L113.488313,18.8457733 L113.388313,18.9457733 L102.804705,18.9457733 Z M102.805614,15.6411149 L108.077047,15.6411149 C108.043982,13.7769057 107.082251,12.6752808 105.4877,12.6752808 C103.832982,12.6752808 102.839743,13.7760054 102.805614,15.6411149 Z" id="Combined-Shape" stroke="#000000" stroke-width="0.2"></path>
      <path d="M65.5465033,21.139856 L70.6486606,21.139856 C70.4167444,24.2598084 67.1235338,26.553891 62.8408139,26.553891 C57.5995069,26.553891 54.615518,23.8009918 54.615518,18.9681244 L54.615518,16.1540497 C54.615518,11.7035294 57.9087285,8.73651589 62.8408139,8.73651589 C67.4636776,8.73651589 70.6177384,11.7188233 70.6177384,16.0928742 L70.6177384,18.8457733 L59.9341304,18.8457733 L59.9341304,19.9010514 C59.9341304,21.5833786 61.0937116,22.7151261 62.8098917,22.7151261 C64.1859281,22.7151261 65.3609704,22.0421951 65.5465033,21.139856 Z M62.7171252,12.5752808 C60.9700229,12.5752808 59.9341304,13.7682038 59.9341304,15.7411149 L65.4073536,15.7411149 C65.4073536,13.7682038 64.4023832,12.5752808 62.7171252,12.5752808 Z" id="Combined-Shape" fill="#FFFFFF"></path>
      <path d="M60.0341304,18.9457733 L60.0341304,19.9010514 C60.0341304,21.5265871 61.1473655,22.6151261 62.8098917,22.6151261 C64.1456119,22.6151261 65.2744803,21.9663153 65.4485524,21.119716 L65.5465033,21.039856 L70.6486606,21.039856 L70.7483855,21.1472689 C70.511772,24.3304123 67.1655504,26.653891 62.8408139,26.653891 C57.5463691,26.653891 54.515518,23.8584444 54.515518,18.9681244 L54.515518,16.1540497 C54.515518,11.6468527 57.8545738,8.63651589 62.8408139,8.63651589 C67.5181447,8.63651589 70.7177384,11.6627325 70.7177384,16.0928742 L70.7177384,18.8457733 L70.6177384,18.9457733 L60.0341304,18.9457733 Z M60.0350396,15.6411149 L65.3064723,15.6411149 C65.2734075,13.7769057 64.3116763,12.6752808 62.7171252,12.6752808 C61.0624077,12.6752808 60.0691689,13.7760054 60.0350396,15.6411149 Z" id="Combined-Shape" stroke="#000000" stroke-width="0.2"></path>
      <polygon id="Path" fill="#FFFFFF" points="40.0620115 9.13415688 45.952684 9.13415688 48.9366729 21.3080887 49.2304335 21.3080887 52.1525781 9.13415688 57.9041008 9.13415688 52.1680392 26.15625 45.8599175 26.15625"></polygon>
      <path d="M49.0151218,21.2080887 L49.1515963,21.2080887 L52.0553401,9.11081655 L52.1525781,9.03415688 L57.9041008,9.03415688 L57.998865,9.16609028 L52.2628034,26.1881834 L52.1680392,26.25625 L45.8599175,26.25625 L45.7652578,26.1884921 L39.9673519,9.16639896 L40.0620115,9.03415688 L45.952684,9.03415688 L46.0498089,9.1103503 L49.0151218,21.2080887 Z" id="Path" stroke="#000000" stroke-width="0.2"></path>
      <path d="M38.3900904,6.06008615 C36.2719221,6.06008615 34.942269,4.92833872 34.942269,3.1083665 C34.942269,1.28839428 36.2719221,0.156646847 38.3900904,0.156646847 C40.5082587,0.156646847 41.8379119,1.28839428 41.8379119,3.1083665 C41.8379119,4.92833872 40.5082587,6.06008615 38.3900904,6.06008615 Z M45.8577933,26.15625 L30.4894772,26.15625 L30.4894772,22.1186646 L35.7462453,22.1186646 L35.7462453,13.1717423 L30.9378486,13.1717423 L30.9378486,9.13415688 L41.0184745,9.13415688 L41.0184745,22.1186646 L45.8577933,22.1186646 L45.8577933,26.15625 Z" id="Combined-Shape" fill="#FFFFFF"></path>
      <path d="M38.3900904,6.16008615 C36.2170922,6.16008615 34.842269,4.98497887 34.842269,3.1083665 C34.842269,1.23175412 36.2170922,0.0566468473 38.3900904,0.0566468473 C40.5630887,0.0566468473 41.9379119,1.23175412 41.9379119,3.1083665 C41.9379119,4.98497887 40.5630887,6.16008615 38.3900904,6.16008615 Z M35.6462453,22.0186646 L35.6462453,13.2717423 L30.9378486,13.2717423 L30.8378486,13.1717423 L30.8378486,9.13415688 L30.9378486,9.03415688 L41.0184745,9.03415688 L41.1184745,9.13415688 L41.1184745,22.0186646 L45.8577933,22.0186646 L45.9577933,22.1186646 L45.9577933,26.15625 L45.8577933,26.25625 L30.4894772,26.25625 L30.3894772,26.15625 L30.3894772,22.1186646 L30.4894772,22.0186646 L35.6462453,22.0186646 Z" id="Combined-Shape" stroke="#000000" stroke-width="0.2"></path>
    </g>
</svg>
