<?xml version="1.0" encoding="UTF-8"?>
<svg width="117px" height="40px" viewBox="0 0 117 40" version="1.1" xmlns="http://www.w3.org/2000/svg" xmlns:xlink="http://www.w3.org/1999/xlink">
    <!-- Generator: Sketch 48.1 (47250) - http://www.bohemiancoding.com/sketch -->
    <title>brand-tag-follow@2x</title>
    <desc>Created with Sketch.</desc>
    <defs>
        <rect id="path-1" x="0" y="0" width="117" height="40" rx="4"></rect>
        <rect id="path-3" x="0" y="0" width="117" height="40" rx="4"></rect>
        <path d="M4,0 L113,0 C115.209139,-4.05812251e-16 117,1.790861 117,4 L117,36 C117,38.209139 115.209139,40 113,40 L4,40 C1.790861,40 2.705415e-16,38.209139 0,36 L0,4 C-2.705415e-16,1.790861 1.790861,4.05812251e-16 4,0 Z M93.1074761,21.0588238 L98.6434595,20.2909291 L99.5163513,20.1698514 L99.6261092,20.9406857 L100.394449,26.3365171 L100.504224,27.1073485 L99.6313322,27.228429 L93.5210782,28.075978 L93.0616589,28.1397036 L87.6864792,28.8852932 L86.8595285,29 L86.7497649,28.2291657 L86.0137024,23.06005 L85.9297628,22.4705905 L85.1162196,16.7573589 L85,15.9411781 L85.7810096,15.8328479 L91.2480772,15.074508 L92.0290839,14.966175 L92.1453036,15.7823558 L92.900737,21.0874998 L93.1074761,21.0588238 Z M98.0491584,10.2080124 L103.190478,11.5316503 L104,11.7400607 L103.787335,12.5386612 L102.438027,17.6058546 L102.225967,18.402232 L101.418882,18.1936766 L96.2881178,16.8678782 L95.4809845,16.6593085 L95.691584,15.8625132 L97.0303395,10.7974804 L97.2411349,10 L98.0491584,10.2080124 Z M16.9870605,26 L15.0974121,26 L15.0974121,15.4311523 L21.8356934,15.4311523 L21.8356934,17.027832 L16.9870605,17.027832 L16.9870605,20.1479492 L21.4182129,20.1479492 L21.4182129,21.6860352 L16.9870605,21.6860352 L16.9870605,26 Z M26.4572754,26.1171875 C24.1501465,26.1171875 22.6999512,24.59375 22.6999512,22.1181641 C22.6999512,19.6499023 24.1647949,18.1191406 26.4572754,18.1191406 C28.7497559,18.1191406 30.2145996,19.6425781 30.2145996,22.1181641 C30.2145996,24.6010742 28.7644043,26.1171875 26.4572754,26.1171875 Z M26.4572754,24.6669922 C27.651123,24.6669922 28.3615723,23.7294922 28.3615723,22.1181641 C28.3615723,20.5141602 27.6437988,19.5620117 26.4572754,19.5620117 C25.2634277,19.5620117 24.5529785,20.5214844 24.5529785,22.1181641 C24.5529785,23.7294922 25.2634277,24.6669922 26.4572754,24.6669922 Z M31.4377441,26 L31.4377441,15.4311523 L33.2614746,15.4311523 L33.2614746,26 L31.4377441,26 Z M34.8654785,26 L34.8654785,15.4311523 L36.689209,15.4311523 L36.689209,26 L34.8654785,26 Z M41.677002,26.1171875 C39.369873,26.1171875 37.9196777,24.59375 37.9196777,22.1181641 C37.9196777,19.6499023 39.3845215,18.1191406 41.677002,18.1191406 C43.9694824,18.1191406 45.4343262,19.6425781 45.4343262,22.1181641 C45.4343262,24.6010742 43.9841309,26.1171875 41.677002,26.1171875 Z M41.677002,24.6669922 C42.8708496,24.6669922 43.5812988,23.7294922 43.5812988,22.1181641 C43.5812988,20.5141602 42.8635254,19.5620117 41.677002,19.5620117 C40.4831543,19.5620117 39.7727051,20.5214844 39.7727051,22.1181641 C39.7727051,23.7294922 40.4831543,24.6669922 41.677002,24.6669922 Z M57.1384277,18.2363281 L55.036377,26 L53.1174316,26 L51.5866699,20.3237305 L51.5500488,20.3237305 L50.0266113,26 L48.1223145,26 L46.0202637,18.2363281 L47.8513184,18.2363281 L49.1623535,24.1982422 L49.1989746,24.1982422 L50.7150879,18.2363281 L52.4655762,18.2363281 L53.9816895,24.1982422 L54.0256348,24.1982422 L55.3366699,18.2363281 L57.1384277,18.2363281 Z M64.4846191,26.1171875 C62.1774902,26.1171875 60.7272949,24.59375 60.7272949,22.1181641 C60.7272949,19.6499023 62.1921387,18.1191406 64.4846191,18.1191406 C66.7770996,18.1191406 68.2419434,19.6425781 68.2419434,22.1181641 C68.2419434,24.6010742 66.791748,26.1171875 64.4846191,26.1171875 Z M64.4846191,24.6669922 C65.6784668,24.6669922 66.388916,23.7294922 66.388916,22.1181641 C66.388916,20.5141602 65.6711426,19.5620117 64.4846191,19.5620117 C63.2907715,19.5620117 62.5803223,20.5214844 62.5803223,22.1181641 C62.5803223,23.7294922 63.2907715,24.6669922 64.4846191,24.6669922 Z M69.4138184,26 L69.4138184,18.2363281 L71.1643066,18.2363281 L71.1643066,19.5913086 L71.2009277,19.5913086 C71.6550293,18.6318359 72.4460449,18.1337891 73.6398926,18.1337891 C75.3537598,18.1337891 76.3278809,19.2250977 76.3278809,21.0195312 L76.3278809,26 L74.5041504,26 L74.5041504,21.3857422 C74.5041504,20.2871094 73.9987793,19.671875 72.9440918,19.671875 C71.8820801,19.671875 71.2375488,20.4335938 71.2375488,21.5541992 L71.2375488,26 L69.4138184,26 Z" id="path-5"></path>
    </defs>
    <g id="BrandStickers" stroke="none" stroke-width="1" fill="none" fill-rule="evenodd" transform="translate(-650.000000, -28.000000)">
        <g id="brand-tag-follow" transform="translate(650.000000, 28.000000)">
            <g id="button">
                <g id="button-contents-copy">
                    <path d="M3,6 L3,34 L114,34 L114,6 L3,6 Z M4,0 L113,0 C115.209139,-4.05812251e-16 117,1.790861 117,4 L117,36 C117,38.209139 115.209139,40 113,40 L4,40 C1.790861,40 2.705415e-16,38.209139 0,36 L0,4 C-2.705415e-16,1.790861 1.790861,4.05812251e-16 4,0 Z" id="shadow-maker" fill="#FFFFFF" fill-rule="nonzero"></path>
                    <mask id="mask-2" fill="white">
                        <use xlink:href="#path-1"></use>
                    </mask>
                    <g id="mask"></g>
                    <g id="button-contents" mask="url(#mask-2)">
                        <mask id="mask-4" fill="white">
                            <use xlink:href="#path-3"></use>
                        </mask>
                        <g id="background" opacity="0.615885417"></g>
                    </g>
                    <g id="Black-fill" opacity="0.4" mask="url(#mask-2)">
                        <g transform="translate(15.000000, 10.000000)">
                            <path d="M78.1074761,11.0588238 L83.6434595,10.2909291 L84.5163513,10.1698514 L84.6261092,10.9406857 L85.3944488,16.3365171 L85.5042239,17.1073485 L84.6313322,17.228429 L78.5210782,18.075978 L78.0616589,18.1397036 L72.6864792,18.8852932 L71.8595285,19 L71.7497649,18.2291657 L71.0137024,13.06005 L70.9297628,12.4705905 L70.1162196,6.75735894 L70,5.94117813 L70.7810096,5.83284793 L76.2480772,5.07450805 L77.0290839,4.966175 L77.1453036,5.7823558 L77.900737,11.0874998 L78.1074761,11.0588238 Z M83.0491584,0.20801242 L88.1904785,1.53165029 L89,1.74006071 L88.787335,2.53866124 L87.4380268,7.6058546 L87.2259667,8.40223201 L86.4188824,8.1936766 L81.2881178,6.86787816 L80.4809845,6.65930853 L80.691584,5.86251322 L82.0303395,0.797480444 L82.2411349,0 L83.0491584,0.20801242 Z" id="Clip-2-Copy" fill="#000000"></path>
                            <path d="M1.98706055,16 L0.0974121094,16 L0.0974121094,5.43115234 L6.83569336,5.43115234 L6.83569336,7.02783203 L1.98706055,7.02783203 L1.98706055,10.1479492 L6.41821289,10.1479492 L6.41821289,11.6860352 L1.98706055,11.6860352 L1.98706055,16 Z M11.4572754,16.1171875 C9.15014648,16.1171875 7.69995117,14.59375 7.69995117,12.1181641 C7.69995117,9.64990234 9.16479492,8.11914062 11.4572754,8.11914062 C13.7497559,8.11914062 15.2145996,9.64257812 15.2145996,12.1181641 C15.2145996,14.6010742 13.7644043,16.1171875 11.4572754,16.1171875 Z M11.4572754,14.6669922 C12.651123,14.6669922 13.3615723,13.7294922 13.3615723,12.1181641 C13.3615723,10.5141602 12.6437988,9.56201172 11.4572754,9.56201172 C10.2634277,9.56201172 9.55297852,10.5214844 9.55297852,12.1181641 C9.55297852,13.7294922 10.2634277,14.6669922 11.4572754,14.6669922 Z M16.4377441,16 L16.4377441,5.43115234 L18.2614746,5.43115234 L18.2614746,16 L16.4377441,16 Z M19.8654785,16 L19.8654785,5.43115234 L21.689209,5.43115234 L21.689209,16 L19.8654785,16 Z M26.677002,16.1171875 C24.369873,16.1171875 22.9196777,14.59375 22.9196777,12.1181641 C22.9196777,9.64990234 24.3845215,8.11914062 26.677002,8.11914062 C28.9694824,8.11914062 30.4343262,9.64257812 30.4343262,12.1181641 C30.4343262,14.6010742 28.9841309,16.1171875 26.677002,16.1171875 Z M26.677002,14.6669922 C27.8708496,14.6669922 28.5812988,13.7294922 28.5812988,12.1181641 C28.5812988,10.5141602 27.8635254,9.56201172 26.677002,9.56201172 C25.4831543,9.56201172 24.7727051,10.5214844 24.7727051,12.1181641 C24.7727051,13.7294922 25.4831543,14.6669922 26.677002,14.6669922 Z M42.1384277,8.23632812 L40.036377,16 L38.1174316,16 L36.5866699,10.3237305 L36.5500488,10.3237305 L35.0266113,16 L33.1223145,16 L31.0202637,8.23632812 L32.8513184,8.23632812 L34.1623535,14.1982422 L34.1989746,14.1982422 L35.7150879,8.23632812 L37.4655762,8.23632812 L38.9816895,14.1982422 L39.0256348,14.1982422 L40.3366699,8.23632812 L42.1384277,8.23632812 Z M49.4846191,16.1171875 C47.1774902,16.1171875 45.7272949,14.59375 45.7272949,12.1181641 C45.7272949,9.64990234 47.1921387,8.11914062 49.4846191,8.11914062 C51.7770996,8.11914062 53.2419434,9.64257812 53.2419434,12.1181641 C53.2419434,14.6010742 51.791748,16.1171875 49.4846191,16.1171875 Z M49.4846191,14.6669922 C50.6784668,14.6669922 51.388916,13.7294922 51.388916,12.1181641 C51.388916,10.5141602 50.6711426,9.56201172 49.4846191,9.56201172 C48.2907715,9.56201172 47.5803223,10.5214844 47.5803223,12.1181641 C47.5803223,13.7294922 48.2907715,14.6669922 49.4846191,14.6669922 Z M54.4138184,16 L54.4138184,8.23632812 L56.1643066,8.23632812 L56.1643066,9.59130859 L56.2009277,9.59130859 C56.6550293,8.63183594 57.4460449,8.13378906 58.6398926,8.13378906 C60.3537598,8.13378906 61.3278809,9.22509766 61.3278809,11.0195312 L61.3278809,16 L59.5041504,16 L59.5041504,11.3857422 C59.5041504,10.2871094 58.9987793,9.671875 57.9440918,9.671875 C56.8820801,9.671875 56.2375488,10.4335938 56.2375488,11.5541992 L56.2375488,16 L54.4138184,16 Z" id="Follow-on-Universe" fill="#080808"></path>
                        </g>
                    </g>
                    <mask id="mask-6" fill="white">
                        <use xlink:href="#path-5"></use>
                    </mask>
                    <use id="Combined-Shape" fill="#FFFFFF" xlink:href="#path-5"></use>
                </g>
            </g>
        </g>
    </g>
</svg>