<?xml version="1.0" encoding="UTF-8"?>
<svg width="80px" height="38px" viewBox="0 0 80 38" version="1.1" xmlns="http://www.w3.org/2000/svg" xmlns:xlink="http://www.w3.org/1999/xlink">
  <g id="Tag-Variations" stroke="none" stroke-width="1" fill="#ffffff" fill-rule="evenodd">
    <path d="M4.06568123,12.6497688 C4.45287091,14.8338114 5.15216353,15.7419511 6.09567765,15.7419511 C7.03919177,15.7419511 7.32664503,14.8358602 6.81051853,12.7506732 C5.61330226,7.91238366 7.49843437,7.39147105 7.49843437,2.65357373 C8.60046493,2.41539835 9.06918819,2.27556635 10.0183907,2 C10.0183907,7.36432418 8.6687256,8.68888661 9.80526572,13.4928584 C10.8121106,17.7462097 8.7199211,19.5 6.09567765,19.5 C3.47143419,19.5 1.41792576,18.1626324 1.41792576,13.3018059 C1.41792576,7.81301586 0,8.24480478 0,3.3619534 C2.03796016,3.3517093 2.86998186,3.30048879 4.33455241,3.15041269 C4.33455241,7.69264766 3.16767422,7.58149915 4.06568123,12.6497688 Z M12.7044884,19.8174913 C12.2814284,13.635727 11.9795823,7.9084043 12.1035689,1.68846488 C12.8934394,1.47510223 13.2974854,1.3705127 14.2097581,1.18591218 C15.7546401,5.7653648 17.1050254,8.90200484 19.0004768,12.1908227 C19.0270171,12.1913456 19.0400891,12.1918685 19.0666294,12.1923915 C19.013945,8.94802424 18.9846318,5.63985736 18.9846318,0.598119012 C20.6416168,0.504511382 21.8010706,0.43809703 23.6477987,0.590274798 C23.6022445,7.23589361 22.6246115,13.3350321 22.6400603,20 C21.4069276,19.7040116 20.7465896,19.8174913 19.7162721,19.8174913 C17.9376772,16.4941589 17.0887843,15.6794065 15.0218114,11.1846714 C14.9956673,11.1825796 14.9829913,11.1820566 14.9572433,11.1799648 C15.2234383,15.5491925 15.4718078,16.4941589 15.4718078,19.8174913 L12.7044884,19.8174913 Z M24.6596092,21.170829 C24.5492264,14.0603128 26.1296573,8.04942564 26.2082912,1 C27.7477439,1.44173129 28.4248078,1.75292732 29.6855346,2.43118848 C29.577736,10.1818495 27.1522674,16.6282023 27.409212,24.5 C26.4135516,22.9236563 25.8871105,22.2015353 24.6596092,21.170829 Z M31.6326534,31.1440686 C29.9298628,21.8372528 33.8816222,12.4218411 31.9255863,3.5 C33.2764795,4.34972366 33.88389,4.81807528 35.1040028,5.65338813 C36.3551098,12.5005859 33.9636434,20.5047667 33.4269147,27.343215 C33.4461916,27.3679193 33.455641,27.3802714 33.4752959,27.4039463 C34.8322367,20.8954028 37.7925599,14.2504711 38.0510968,7.43569766 C39.2545786,8.02087985 39.8710606,8.25145296 41.2578616,8.42541213 C40.5385696,17.6931129 36.0999747,26.5140783 34.9792701,36 C33.4741619,34.453925 32.8576799,33.3602467 31.6326534,31.1440686 Z M49.9091217,35.046011 C46.4970802,36.8138008 44.8078476,37.7421973 40.8261677,38 C40.8261677,32.902259 40.520894,27.7405789 41.1723504,22.701662 C41.7855994,17.9635149 43.9352511,13.3368776 43.3011617,8.42788502 C46.5252534,8.35320409 47.9489635,8.05908397 50.8176101,7.5 L50.8176101,11.7399333 C49.1438148,12.1895534 48.3047945,12.4105271 46.5437782,12.6995321 C46.5437782,13.7573415 46.0625187,15.7834454 45.4160794,18.6146712 C47.2890166,18.2571235 48.1766645,17.9824408 49.9415401,17.4141496 C49.4818929,20.7251748 49.5988309,20.7906485 49.5988309,23.9891408 C47.7282093,24.7968202 46.7869166,25.1881279 44.7885509,25.7088483 L44.7885509,31.2608131 C46.9196778,30.5994264 47.9184747,30.0920053 49.9091217,29.0607946 L49.9091217,35.046011 Z M56.4978947,31.6602326 C55.006996,32.3339283 54.2829813,32.7267871 52.8301887,33.5 C52.8301887,24.5356281 53.6125532,15.3680533 53.3283457,6.43754846 C55.1772824,6.06709403 56.0953997,5.87326978 58.0193576,5.60441677 C60.9090654,5.20113727 61.3687195,5.68517688 63.0287137,12.2027781 C63.9424647,15.7885269 63.1394594,17.9768653 61.6870637,19.8218429 C62.7413307,24.5439646 63.2815631,26.3832109 64.4025157,29.6641554 C62.4634742,29.7016698 61.5564711,29.8850734 59.8016087,30.4066274 C58.9577188,27.7352914 58.5445064,26.4415666 57.729593,22.3201959 C57.2326267,22.5041206 56.9865253,22.6015537 56.4978947,22.8052776 L56.4978947,31.6602326 Z M56.4447662,17.5 C57.0525433,17.2954545 57.3585983,17.1987029 57.9793739,17.0193969 C59.0338259,16.7149449 59.5805496,15.3961785 59.2965527,12.945839 C59.0180702,10.5412462 58.491435,9.34341929 57.6457464,9.51641536 C57.123838,9.62368344 56.8654441,9.68152407 56.3522013,9.80351522 C56.3522013,11.4477666 56.43807,15.0286276 56.4447662,17.5 Z M68.4113244,21.2844231 C68.5689314,22.6949983 69.300678,22.8770412 69.9819594,22.2450336 C70.7408796,21.5410316 71.1216984,20.4246048 71.0793852,19.3230911 C71.039013,18.2678595 70.7168116,18.0277069 69.7234218,18.2231201 C69.2335204,18.323398 68.9839113,18.3557954 68.4784821,18.3789365 C66.7265603,18.4812713 65.5821629,16.6958112 64.680387,11.8860738 C63.5154153,5.67193206 66.2688789,5.39526803 68.2106279,4.51025165 C70.3779178,3.52238619 72.1803048,3.60209423 72.7004855,8.1289967 C71.7645485,8.68541025 71.2781408,8.97338769 70.2692233,9.49380406 C70.0836663,7.85284691 69.5269954,7.56024126 68.7707925,7.85490389 C68.0339994,8.14185284 67.5134305,8.66586892 67.6108673,10.1510097 C67.7048104,11.574441 68.3290272,12.0922862 69.3220287,12.033148 C69.8950038,11.9940653 70.1760566,11.9565254 70.7272928,11.857276 C72.6787466,11.5194168 73.4896849,12.4944261 73.4582411,16.041691 C73.4182571,20.513055 72.466016,24.9345372 70.3647192,27.4389124 C68.2471181,29.9628289 65.8562282,27.8554512 65.6900809,22.484672 C66.8344783,22.227035 67.3744569,21.9591131 68.4113244,21.2844231 Z M80,15.5345653 C76.8503954,15.5464045 76.0538351,17.0252741 74.3239887,20 C75.0219704,13.4832964 75.2954221,7.78658568 72.9559748,1.77176095 C75.0737147,0.588871159 76.1263527,0 79.2446086,0 L79.2446086,3.6279405 C78.1851721,3.6279405 77.6307148,3.81170536 76.446261,4.31358419 C76.7680577,5.3168271 76.684587,6.06526999 76.9742796,7.1508725 C78.0975467,6.48633345 78.6217883,6.23462192 79.5709377,6.14711484 C79.9308817,7.45560303 79.8421232,8.09955217 79.82626,9.41318783 C78.7770213,9.47186905 78.2304956,9.77762907 77.0921207,10.6058578 C77.0026068,11.7460236 77.0207362,12.3338652 76.8598378,13.3396819 C78.0703526,12.2870232 78.678065,11.9025068 80,11.9066248 L80,15.5345653 Z" id="Combined-Shape-Copy-2"></path>
  </g>
</svg>
