<?xml version="1.0" encoding="UTF-8"?>
<svg width="52px" height="66px" viewBox="0 0 52 66" version="1.1" xmlns="http://www.w3.org/2000/svg" xmlns:xlink="http://www.w3.org/1999/xlink">
    <g id="Tag-Variations" stroke="none" stroke-width="1" fill="none" fill-rule="evenodd">
        <g id="BrandStickers">
            <g id="BrandSticker-Tablet" >
                <path d="M12.3028545,63.4345916 C6.27369663,63.4345916 3.28469426,61.255276 2.83502869,56.7455194 C2.83502869,25.5913091 2.83502869,25.5822269 2.83502869,11.7087938 C2.83502869,6.06968713 5.82601005,3.36925491 12.3195613,3.28354313 C29.2194821,3.28365339 29.2194821,3.28365339 40.9670647,3.28365339 C47.2346026,3.28365339 49.7765703,5.63655507 49.2453037,10.8520257 L49.2453037,43.221256 C49.2453037,47.9695163 45.1649885,48.9955784 35.7395557,45.836746 C35.5450694,45.771566 35.3413066,45.73833 35.1361887,45.73833 C34.0874996,45.73833 33.2373671,46.5884894 33.2374545,47.6371987 L33.2374545,54.9210481 C33.2374545,60.5613554 31.2477376,63.2150138 27.1031771,63.4363935 C21.439331,63.4345916 21.439331,63.4345916 12.3028545,63.4345916 Z M8.30240732,16.0570714 C8.69199441,16.8404956 8.98418472,17.3888926 9.23741633,17.8589471 C8.16605184,19.9741925 6.97781122,22.3636364 6.97781122,22.3636364 L9.80231761,22.3636364 C9.80231761,22.3636364 10.2113841,21.5410409 10.7373266,20.4638326 C11.7307737,21.8544106 13.0943285,22.6770061 15.100702,22.6770061 C18.3147955,22.6770061 20.6328386,20.7772023 20.6328386,17.1538653 L20.652318,7.67443231 L18.1200019,7.67443231 L18.1200019,17.0755229 C18.1200019,19.1515971 16.97072,20.248391 15.0812226,20.248391 C14.0682962,20.248391 13.0553698,19.6412372 12.4320305,18.5444433 L12.022964,17.8197759 L12.8800556,16.0962426 C14.1851723,13.4521859 14.5163214,12.1203647 14.5163214,11.0039852 C14.5163214,8.63412697 12.8410969,7.36106262 10.5814918,7.36106262 C8.32188668,7.36106262 6.66614155,8.65371258 6.66614155,11.0431564 C6.66614155,12.1399503 7.075208,13.7067988 8.30240732,16.0570714 Z M10.6009711,15.1757192 L10.5035744,14.9406919 C9.86075567,13.6088707 9.25689569,12.3945632 9.25689569,11.1606701 C9.25689569,10.3576602 9.80231761,9.8092633 10.5814918,9.8092633 C11.3217073,9.8092633 11.9060879,10.3380746 11.9060879,11.1214989 C11.9060879,12.2770496 11.3411866,13.5696995 10.6983679,14.9406919 L10.6009711,15.1757192 Z M35.1438622,12.1987072 C36.1957473,10.0638762 37.4034673,7.67443231 37.4034673,7.67443231 L34.5789609,7.67443231 C34.5789609,7.67443231 34.1698945,8.51661334 33.6439519,9.59382164 C32.6310255,8.18365805 31.28695,7.36106262 29.2805765,7.36106262 C26.0664831,7.36106262 23.7484399,9.26086635 23.7484399,12.8842033 L23.7289605,22.3636364 L26.2612766,22.3636364 L26.2612766,12.9625458 C26.2612766,10.8864716 27.4105585,9.78967769 29.3000559,9.78967769 C30.3129823,9.78967769 31.3259087,10.3968315 31.9492481,11.4936254 L32.3583145,12.2182928 L31.5012229,13.941826 C30.1961062,16.5858828 29.8649572,17.9177039 29.8649572,19.0340834 C29.8649572,21.4039417 31.5401816,22.6770061 33.7997867,22.6770061 C36.0593919,22.6770061 37.715137,21.3843561 37.715137,18.9949122 C37.715137,17.8981183 37.3060705,16.3312699 36.0788712,13.9809972 L35.1438622,12.1987072 Z M32.4751906,18.9165698 C32.4751906,17.7610191 33.0595713,16.4683691 33.70239,15.0973768 L33.7803074,14.8623495 L33.8777042,15.0973768 C34.5205229,16.4291979 35.1243828,17.6630911 35.1243828,18.8969842 C35.1243828,19.6804084 34.6179196,20.2288054 33.7997867,20.2288054 C33.0206126,20.2288054 32.4751906,19.6804084 32.4751906,18.9165698 Z M40.1588681,22.3636364 L42.7301429,22.3636364 L42.7301429,7.67443231 L40.1588681,7.67443231 L40.1588681,22.3636364 Z M19.5334323,30.1576961 C19.3581181,27.8857659 17.9556046,26.1818182 15.5206853,26.1818182 C13.4948325,26.1818182 11.7027319,27.6703242 11.7027319,29.863912 C11.7027319,32.0574998 13.3389976,33.1347081 14.9947427,33.8985467 C15.4232885,34.1139884 15.8713137,34.3098444 16.3193388,34.4861149 C15.6959995,35.9354497 14.7220318,37.3456133 13.4753531,38.7753625 L8.29384484,26.4951879 L5.43037975,26.4951879 L11.7222112,41.1843919 L14.4882795,41.1843919 C16.0855866,39.5783723 17.6244556,37.6002261 18.5984233,35.3478815 C19.1048865,35.524152 19.5918704,35.6612512 20.0204162,35.7591792 L20.0204162,33.0563657 C19.8061433,33.0171945 19.5918704,32.9584377 19.3581181,32.8800952 C19.5334323,31.998743 19.5918704,31.0978051 19.5334323,30.1576961 Z M17.0595543,30.2556241 C17.098513,30.8627779 17.0790337,31.4699316 17.0011163,32.0574998 C16.4751737,31.8420581 16.0076692,31.6462021 15.6570408,31.4699316 C15.0337015,31.156562 14.3129653,30.7256786 14.3129653,29.8443264 C14.3129653,29.1588302 14.8389079,28.6496045 15.5986027,28.6496045 C16.3777769,28.6496045 16.9816369,29.2959294 17.0595543,30.2556241 Z M24.4573507,35.7591792 C25.294963,36.4055042 26.3273687,36.7972163 27.5545681,36.7972163 C29.4440655,36.7972163 30.905017,35.5829088 30.905017,33.6831051 C30.905017,31.7833013 29.5025035,30.608165 27.6130061,30.608165 C26.6000797,30.608165 25.6650707,30.8627779 24.8274585,31.3132468 L24.8079791,31.0586339 C24.8079791,29.5113711 25.957261,28.6104333 27.3402952,28.6104333 C28.0415519,28.6104333 28.7233293,28.8846317 29.1908338,29.315515 L30.9829344,27.631153 C30.0674048,26.7106295 28.7233293,26.1818182 27.3402952,26.1818182 C24.4768301,26.1818182 22.3146217,28.1207931 22.3146217,31.0194627 C22.3146217,31.8224725 22.4509772,32.5863111 22.7042088,33.2913929 C22.1977456,34.0944028 21.8860759,35.1128542 21.8860759,36.1508913 C21.8860759,39.2650026 24.1456811,41.4977616 27.4571713,41.4977616 C29.2882306,41.4977616 31.3920009,40.635995 32.443886,38.7557769 L30.3595951,37.3651989 C29.8141732,38.3640647 28.8402055,39.0691465 27.4571713,39.0691465 C25.6650707,39.0691465 24.4378714,37.7764966 24.4378714,36.0529633 L24.4573507,35.7591792 Z M27.5350887,34.5057005 C26.833832,34.5057005 26.1325752,34.1923308 25.6066326,33.5655914 C26.1910133,33.0955369 26.9117494,32.8605096 27.5350887,32.8605096 C28.0610313,32.8605096 28.5285358,33.1542937 28.5285358,33.6831051 C28.5285358,34.2119164 28.0610313,34.5057005 27.5350887,34.5057005 Z M43.3588793,31.8224725 C43.3588793,32.1750134 43.3004412,32.5471399 43.2030444,32.8996808 C42.3264735,31.9791574 41.1382329,31.5286885 40.1642652,31.5286885 C38.0604949,31.5286885 36.7748575,32.8605096 36.7748575,34.5840429 C36.7748575,36.4250898 38.0410155,37.6785686 40.2032239,37.6785686 C40.8070839,37.6785686 41.3914645,37.6002261 41.9174071,37.4435413 C41.8005309,38.403236 41.5083406,39.6763003 40.9044806,41.1843919 L43.5341935,41.1843919 C44.3523264,38.9712185 44.5665993,37.208514 44.4302438,35.8375216 C45.3068147,34.7994846 45.8132779,33.3305642 45.8132779,31.7441301 C45.8132779,28.3558204 43.1640857,26.1818182 39.9499923,26.1818182 C36.580064,26.1818182 33.9113924,28.7475325 33.9113924,32.0770854 L33.9113924,41.1843919 L36.4826672,41.1843919 L36.4826672,32.1358422 C36.4826672,30.1576961 37.9436188,28.6104333 39.9110336,28.6104333 C41.8979277,28.6104333 43.3588793,29.8834976 43.3588793,31.8224725 Z M40.1837445,33.8985467 C40.5733316,33.8985467 41.2940677,34.0944028 41.6836548,34.9561694 C41.2745884,35.2107823 40.7876045,35.3674671 40.2616619,35.3674671 C39.5993639,35.3674671 39.2682149,35.0149262 39.2682149,34.6036285 C39.2682149,34.1531596 39.6578019,33.8985467 40.1837445,33.8985467 Z M7.18318639,55.8393299 C7.18318639,58.2091882 8.99476635,59.9523071 11.4296856,59.9523071 C13.8840843,59.9523071 15.793061,58.2287738 15.793061,55.7805731 C15.793061,53.156102 13.7087701,52.0984793 11.9945869,51.2562983 C10.4751973,50.5120453 9.32591537,49.8657203 9.32591537,48.8668544 C9.32591537,47.7896461 10.0856102,47.1237355 11.2154127,47.1237355 C12.4620914,47.1237355 13.5529353,48.3967999 14.0788778,49.5131794 L15.9294165,47.7308893 C14.9164901,45.6352295 13.1243895,44.6363636 11.2154127,44.6363636 C8.70257603,44.6363636 6.69620253,46.4186537 6.69620253,48.9647824 C6.69620253,50.7666581 7.67017025,51.7459384 8.93632829,52.509777 C7.84548444,53.2148588 7.18318639,54.3899951 7.18318639,55.8393299 Z M13.1243895,55.8393299 C13.1243895,56.877367 12.3646947,57.4649352 11.4686444,57.4649352 C10.5725941,57.4649352 9.81289923,56.8577814 9.81289923,55.8393299 C9.81289923,54.7817072 10.5725941,54.2137247 11.4686444,54.2137247 C11.721876,54.2137247 11.9556282,54.2528959 12.1893805,54.3508239 C12.7737611,54.7033648 13.1243895,55.2321762 13.1243895,55.8393299 Z M21.2927938,54.2137247 C22.130406,54.8600497 23.1628118,55.2517618 24.3900111,55.2517618 C26.2795085,55.2517618 27.7404601,54.0374542 27.7404601,52.1376505 C27.7404601,50.2378468 26.3379466,49.0627105 24.4484492,49.0627105 C23.4355227,49.0627105 22.5005137,49.3173233 21.6629015,49.7677923 L21.6434221,49.5131794 C21.6434221,47.9659166 22.7927041,47.0649787 24.1757382,47.0649787 C24.876995,47.0649787 25.5587724,47.3391772 26.0262769,47.7700605 L27.8183775,46.0856984 C26.9028478,45.165175 25.5587724,44.6363636 24.1757382,44.6363636 C21.3122731,44.6363636 19.1500648,46.5753386 19.1500648,49.4740082 C19.1500648,50.277018 19.2864203,51.0408566 19.5396519,51.7459384 C19.0331887,52.5489482 18.721519,53.5673997 18.721519,54.6054368 C18.721519,57.719548 20.9811241,59.9523071 24.2926143,59.9523071 C26.1236737,59.9523071 28.2274439,59.0905404 29.2793291,57.2103223 L27.1950381,55.8197443 C26.6496162,56.8186102 25.6756485,57.523692 24.2926143,57.523692 C22.5005137,57.523692 21.2733144,56.231042 21.2733144,54.5075088 L21.2927938,54.2137247 Z M24.3705318,52.9602459 C23.669275,52.9602459 22.9680182,52.6468762 22.4420757,52.0201369 C23.0264563,51.5500823 23.7471924,51.3150551 24.3705318,51.3150551 C24.8964743,51.3150551 25.3639788,51.6088392 25.3639788,52.1376505 C25.3639788,52.6664619 24.8964743,52.9602459 24.3705318,52.9602459 Z" id="Combined-Shape" fill-opacity="0.15" fill="#000000"></path>
                <path d="M8.30240732,16.0570714 C7.075208,13.7067988 6.66614155,12.1399503 6.66614155,11.0431564 C6.66614155,8.65371258 8.32188668,7.36106262 10.5814918,7.36106262 C12.8410969,7.36106262 14.5163214,8.63412697 14.5163214,11.0039852 C14.5163214,12.1203647 14.1851723,13.4521859 12.8800556,16.0962426 L12.022964,17.8197759 L12.4320305,18.5444433 C13.0553698,19.6412372 14.0682962,20.248391 15.0812226,20.248391 C16.97072,20.248391 18.1200019,19.1515971 18.1200019,17.0755229 L18.1200019,7.67443231 L20.652318,7.67443231 L20.6328386,17.1538653 C20.6328386,20.7772023 18.3147955,22.6770061 15.100702,22.6770061 C13.0943285,22.6770061 11.7307737,21.8544106 10.7373266,20.4638326 C10.2113841,21.5410409 9.80231761,22.3636364 9.80231761,22.3636364 L6.97781122,22.3636364 C6.97781122,22.3636364 8.16605184,19.9741925 9.23741633,17.8589471 C8.98418472,17.3888926 8.69199441,16.8404956 8.30240732,16.0570714 Z M10.6009711,15.1757192 L10.6983679,14.9406919 C11.3411866,13.5696995 11.9060879,12.2770496 11.9060879,11.1214989 C11.9060879,10.3380746 11.3217073,9.8092633 10.5814918,9.8092633 C9.80231761,9.8092633 9.25689569,10.3576602 9.25689569,11.1606701 C9.25689569,12.3945632 9.86075567,13.6088707 10.5035744,14.9406919 L10.6009711,15.1757192 Z" id="Combined-Shape" fill="#FFFFFF"></path>
                <path d="M35.1438622,12.1987072 L36.0788712,13.9809972 C37.3060705,16.3312699 37.715137,17.8981183 37.715137,18.9949122 C37.715137,21.3843561 36.0593919,22.6770061 33.7997867,22.6770061 C31.5401816,22.6770061 29.8649572,21.4039417 29.8649572,19.0340834 C29.8649572,17.9177039 30.1961062,16.5858828 31.5012229,13.941826 L32.3583145,12.2182928 L31.9492481,11.4936254 C31.3259087,10.3968315 30.3129823,9.78967769 29.3000559,9.78967769 C27.4105585,9.78967769 26.2612766,10.8864716 26.2612766,12.9625458 L26.2612766,22.3636364 L23.7289605,22.3636364 L23.7484399,12.8842033 C23.7484399,9.26086635 26.0664831,7.36106262 29.2805765,7.36106262 C31.28695,7.36106262 32.6310255,8.18365805 33.6439519,9.59382164 C34.1698945,8.51661334 34.5789609,7.67443231 34.5789609,7.67443231 L37.4034673,7.67443231 C37.4034673,7.67443231 36.1957473,10.0638762 35.1438622,12.1987072 Z M32.4751906,18.9165698 C32.4751906,19.6804084 33.0206126,20.2288054 33.7997867,20.2288054 C34.6179196,20.2288054 35.1243828,19.6804084 35.1243828,18.8969842 C35.1243828,17.6630911 34.5205229,16.4291979 33.8777042,15.0973768 L33.7803074,14.8623495 L33.70239,15.0973768 C33.0595713,16.4683691 32.4751906,17.7610191 32.4751906,18.9165698 Z" id="Combined-Shape" fill="#FFFFFF"></path>
                <polygon id="Path" fill="#FFFFFF" points="40.1588681 22.3636364 42.7301429 22.3636364 42.7301429 7.67443231 40.1588681 7.67443231"></polygon>
                <path d="M19.5334323,30.1576961 C19.5918704,31.0978051 19.5334323,31.998743 19.3581181,32.8800952 C19.5918704,32.9584377 19.8061433,33.0171945 20.0204162,33.0563657 L20.0204162,35.7591792 C19.5918704,35.6612512 19.1048865,35.524152 18.5984233,35.3478815 C17.6244556,37.6002261 16.0855866,39.5783723 14.4882795,41.1843919 L11.7222112,41.1843919 L5.43037975,26.4951879 L8.29384484,26.4951879 L13.4753531,38.7753625 C14.7220318,37.3456133 15.6959995,35.9354497 16.3193388,34.4861149 C15.8713137,34.3098444 15.4232885,34.1139884 14.9947427,33.8985467 C13.3389976,33.1347081 11.7027319,32.0574998 11.7027319,29.863912 C11.7027319,27.6703242 13.4948325,26.1818182 15.5206853,26.1818182 C17.9556046,26.1818182 19.3581181,27.8857659 19.5334323,30.1576961 Z M17.0595543,30.2556241 C16.9816369,29.2959294 16.3777769,28.6496045 15.5986027,28.6496045 C14.8389079,28.6496045 14.3129653,29.1588302 14.3129653,29.8443264 C14.3129653,30.7256786 15.0337015,31.156562 15.6570408,31.4699316 C16.0076692,31.6462021 16.4751737,31.8420581 17.0011163,32.0574998 C17.0790337,31.4699316 17.098513,30.8627779 17.0595543,30.2556241 Z" id="Combined-Shape" fill="#FFFFFF"></path>
                <path d="M24.4573507,35.7591792 L24.4378714,36.0529633 C24.4378714,37.7764966 25.6650707,39.0691465 27.4571713,39.0691465 C28.8402055,39.0691465 29.8141732,38.3640647 30.3595951,37.3651989 L32.443886,38.7557769 C31.3920009,40.635995 29.2882306,41.4977616 27.4571713,41.4977616 C24.1456811,41.4977616 21.8860759,39.2650026 21.8860759,36.1508913 C21.8860759,35.1128542 22.1977456,34.0944028 22.7042088,33.2913929 C22.4509772,32.5863111 22.3146217,31.8224725 22.3146217,31.0194627 C22.3146217,28.1207931 24.4768301,26.1818182 27.3402952,26.1818182 C28.7233293,26.1818182 30.0674048,26.7106295 30.9829344,27.631153 L29.1908338,29.315515 C28.7233293,28.8846317 28.0415519,28.6104333 27.3402952,28.6104333 C25.957261,28.6104333 24.8079791,29.5113711 24.8079791,31.0586339 L24.8274585,31.3132468 C25.6650707,30.8627779 26.6000797,30.608165 27.6130061,30.608165 C29.5025035,30.608165 30.905017,31.7833013 30.905017,33.6831051 C30.905017,35.5829088 29.4440655,36.7972163 27.5545681,36.7972163 C26.3273687,36.7972163 25.294963,36.4055042 24.4573507,35.7591792 Z M27.5350887,34.5057005 C28.0610313,34.5057005 28.5285358,34.2119164 28.5285358,33.6831051 C28.5285358,33.1542937 28.0610313,32.8605096 27.5350887,32.8605096 C26.9117494,32.8605096 26.1910133,33.0955369 25.6066326,33.5655914 C26.1325752,34.1923308 26.833832,34.5057005 27.5350887,34.5057005 Z" id="Combined-Shape" fill="#FFFFFF"></path>
                <path d="M43.3588793,31.8224725 C43.3588793,29.8834976 41.8979277,28.6104333 39.9110336,28.6104333 C37.9436188,28.6104333 36.4826672,30.1576961 36.4826672,32.1358422 L36.4826672,41.1843919 L33.9113924,41.1843919 L33.9113924,32.0770854 C33.9113924,28.7475325 36.580064,26.1818182 39.9499923,26.1818182 C43.1640857,26.1818182 45.8132779,28.3558204 45.8132779,31.7441301 C45.8132779,33.3305642 45.3068147,34.7994846 44.4302438,35.8375216 C44.5665993,37.208514 44.3523264,38.9712185 43.5341935,41.1843919 L40.9044806,41.1843919 C41.5083406,39.6763003 41.8005309,38.403236 41.9174071,37.4435413 C41.3914645,37.6002261 40.8070839,37.6785686 40.2032239,37.6785686 C38.0410155,37.6785686 36.7748575,36.4250898 36.7748575,34.5840429 C36.7748575,32.8605096 38.0604949,31.5286885 40.1642652,31.5286885 C41.1382329,31.5286885 42.3264735,31.9791574 43.2030444,32.8996808 C43.3004412,32.5471399 43.3588793,32.1750134 43.3588793,31.8224725 Z M40.1837445,33.8985467 C39.6578019,33.8985467 39.2682149,34.1531596 39.2682149,34.6036285 C39.2682149,35.0149262 39.5993639,35.3674671 40.2616619,35.3674671 C40.7876045,35.3674671 41.2745884,35.2107823 41.6836548,34.9561694 C41.2940677,34.0944028 40.5733316,33.8985467 40.1837445,33.8985467 Z" id="Combined-Shape" fill="#FFFFFF"></path>
                <path d="M7.18318639,55.8393299 C7.18318639,54.3899951 7.84548444,53.2148588 8.93632829,52.509777 C7.67017025,51.7459384 6.69620253,50.7666581 6.69620253,48.9647824 C6.69620253,46.4186537 8.70257603,44.6363636 11.2154127,44.6363636 C13.1243895,44.6363636 14.9164901,45.6352295 15.9294165,47.7308893 L14.0788778,49.5131794 C13.5529353,48.3967999 12.4620914,47.1237355 11.2154127,47.1237355 C10.0856102,47.1237355 9.32591537,47.7896461 9.32591537,48.8668544 C9.32591537,49.8657203 10.4751973,50.5120453 11.9945869,51.2562983 C13.7087701,52.0984793 15.793061,53.156102 15.793061,55.7805731 C15.793061,58.2287738 13.8840843,59.9523071 11.4296856,59.9523071 C8.99476635,59.9523071 7.18318639,58.2091882 7.18318639,55.8393299 Z M13.1243895,55.8393299 C13.1243895,55.2321762 12.7737611,54.7033648 12.1893805,54.3508239 C11.9556282,54.2528959 11.721876,54.2137247 11.4686444,54.2137247 C10.5725941,54.2137247 9.81289923,54.7817072 9.81289923,55.8393299 C9.81289923,56.8577814 10.5725941,57.4649352 11.4686444,57.4649352 C12.3646947,57.4649352 13.1243895,56.877367 13.1243895,55.8393299 Z" id="Combined-Shape" fill="#FFFFFF"></path>
                <path d="M21.2927938,54.2137247 L21.2733144,54.5075088 C21.2733144,56.231042 22.5005137,57.523692 24.2926143,57.523692 C25.6756485,57.523692 26.6496162,56.8186102 27.1950381,55.8197443 L29.2793291,57.2103223 C28.2274439,59.0905404 26.1236737,59.9523071 24.2926143,59.9523071 C20.9811241,59.9523071 18.721519,57.719548 18.721519,54.6054368 C18.721519,53.5673997 19.0331887,52.5489482 19.5396519,51.7459384 C19.2864203,51.0408566 19.1500648,50.277018 19.1500648,49.4740082 C19.1500648,46.5753386 21.3122731,44.6363636 24.1757382,44.6363636 C25.5587724,44.6363636 26.9028478,45.165175 27.8183775,46.0856984 L26.0262769,47.7700605 C25.5587724,47.3391772 24.876995,47.0649787 24.1757382,47.0649787 C22.7927041,47.0649787 21.6434221,47.9659166 21.6434221,49.5131794 L21.6629015,49.7677923 C22.5005137,49.3173233 23.4355227,49.0627105 24.4484492,49.0627105 C26.3379466,49.0627105 27.7404601,50.2378468 27.7404601,52.1376505 C27.7404601,54.0374542 26.2795085,55.2517618 24.3900111,55.2517618 C23.1628118,55.2517618 22.130406,54.8600497 21.2927938,54.2137247 Z M24.3705318,52.9602459 C24.8964743,52.9602459 25.3639788,52.6664619 25.3639788,52.1376505 C25.3639788,51.6088392 24.8964743,51.3150551 24.3705318,51.3150551 C23.7471924,51.3150551 23.0264563,51.5500823 22.4420757,52.0201369 C22.9680182,52.6468762 23.669275,52.9602459 24.3705318,52.9602459 Z" id="Combined-Shape" fill="#FFFFFF"></path>
                <path d="M51.7769492,43.221256 C51.7769492,50.3410518 45.7413916,51.8587917 34.9350787,48.2371722 C34.9999035,48.2588976 35.0678202,48.2699756 35.1361887,48.2699756 C35.485742,48.2699756 35.7691292,47.9865794 35.7691001,47.6370933 L35.7691001,54.9210481 C35.7691001,61.7976739 32.8704283,65.663593 27.1706942,65.9662371 L12.3028545,65.9662371 C5.04071418,65.9662371 0.873677436,62.9017576 0.308996785,56.9258654 L0.303383117,11.7087938 C0.303383117,4.61552162 4.46816747,0.855311682 12.3028545,0.752007819 L40.9670647,0.752007819 C48.6146613,0.752007819 52.435463,4.26529106 51.7769492,10.9158161 C51.7769492,31.7314656 51.7769492,31.7431667 51.7769492,43.221256 Z M12.3028545,63.4345916 C21.439331,63.4345916 21.439331,63.4345916 27.1031771,63.4363935 C31.2477376,63.2150138 33.2374545,60.5613554 33.2374545,54.9210481 L33.2374545,47.6371987 C33.2373671,46.5884894 34.0874996,45.73833 35.1361887,45.73833 C35.3413066,45.73833 35.5450694,45.771566 35.7395557,45.836746 C45.1649885,48.9955784 49.2453037,47.9695163 49.2453037,43.221256 L49.2453037,10.8520257 C49.7765703,5.63655507 47.2346026,3.28365339 40.9670647,3.28365339 C29.2194821,3.28365339 29.2194821,3.28365339 12.3195613,3.28354313 C5.82601005,3.36925491 2.83502869,6.06968713 2.83502869,11.7087938 C2.83502869,25.5822269 2.83502869,25.5913091 2.83502869,56.7455194 C3.28469426,61.255276 6.27369663,63.4345916 12.3028545,63.4345916 Z" id="Path-3" fill="#FFFFFF" fill-rule="nonzero"></path>
                <path d="M49.2191564,43.2872758 C49.2191564,54.3951856 40.2144164,63.3999256 29.1065066,63.3999256 L26.7595014,63.3999256 L26.7595014,65.9315712 L29.1065066,65.9315712 C41.6126056,65.9315712 51.750802,55.7933748 51.750802,43.2872758 L49.2191564,43.2872758 Z" id="Path-2" fill="#FFFFFF" fill-rule="nonzero"></path>
            </g>
        </g>
    </g>
</svg>
