<?xml version="1.0" encoding="UTF-8"?>
<svg width="30px" height="54px" viewBox="0 0 30 54" version="1.1" xmlns="http://www.w3.org/2000/svg" xmlns:xlink="http://www.w3.org/1999/xlink">
  <path d="M16,40 C16,35.56064 21.53776,29.81828 24.98826,26.19103 C28.06382,23.4441 30,19.44816 30,15 C30,6.71573 23.28427,0 15,0 C6.715729,0 0,6.71573 0,15 C0,19.44816 1.936179,23.4441 5.011738,26.19103 C8.462241,29.81828 14,35.56064 14,40 L14,53.4987259 C14,53.7777346 14.22595,54 14.50468,54 L15.49532,54 C15.78596,54 16,53.7755719 16,53.4987259 L16,40 Z" fill="#181A26"></path>
  <path d="M15,20 C17.76142,20 20,17.76142 20,15 C20,12.23858 17.76142,10 15,10 C12.23858,10 10,12.23858 10,15 C10,17.76142 12.23858,20 15,20 Z" fill="#FFFFFF"></path>
</svg>
