<svg xmlns="http://www.w3.org/2000/svg" width="130" height="130" viewBox="0 0 130 130">
    <path fill="#000" fill-rule="evenodd" d="M77.9 69.152c-.646-.322-3.826-1.88-4.419-2.094-.593-.215-1.024-.322-1.455.322-.431.644-1.67 2.094-2.048 2.524-.377.43-.754.483-1.4.161-.648-.322-2.731-1.002-5.202-3.195-1.922-1.706-3.22-3.814-3.597-4.459-.378-.644-.04-.992.283-1.313.291-.289.647-.752.97-1.128.324-.376.431-.644.647-1.074.216-.43.108-.805-.054-1.127-.162-.322-1.455-3.49-1.994-4.78-.525-1.254-1.058-1.084-1.455-1.104a26.062 26.062 0 0 0-1.24-.023c-.43 0-1.131.161-1.724.805-.593.645-2.264 2.202-2.264 5.37s2.318 6.229 2.641 6.658c.324.43 4.56 6.931 11.048 9.72a37.247 37.247 0 0 0 3.687 1.355c1.55.49 2.96.42 4.073.255 1.243-.185 3.827-1.557 4.366-3.06.538-1.504.538-2.793.377-3.061-.162-.269-.593-.43-1.24-.752M66.1 85.187h-.009a21.558 21.558 0 0 1-10.949-2.984l-.785-.464-8.143 2.126 2.174-7.901-.512-.81a21.285 21.285 0 0 1-3.289-11.394c.005-11.805 9.655-21.41 21.522-21.41 5.746.003 11.147 2.233 15.209 6.28 4.061 4.046 6.297 9.426 6.295 15.147-.005 11.806-9.656 21.41-21.513 21.41m18.31-39.633C79.521 40.685 73.023 38.003 66.1 38c-14.266 0-25.877 11.555-25.883 25.758a25.62 25.62 0 0 0 3.455 12.878L40 89.985l13.72-3.583a25.958 25.958 0 0 0 12.37 3.136h.01c14.265 0 25.877-11.556 25.883-25.76.002-6.882-2.687-13.355-7.574-18.224"/>
</svg>
