<svg xmlns="http://www.w3.org/2000/svg" width="130" height="130" viewBox="0 0 130 130">
    <g fill="#000" fill-rule="nonzero">
        <path d="M60.431 63.931a2.746 2.746 0 0 0-2.764 2.741c0 1.507 1.246 2.742 2.764 2.742a2.746 2.746 0 0 0 2.765-2.742c.027-1.506-1.22-2.741-2.765-2.741zM70.569 63.931a2.746 2.746 0 0 0-2.765 2.741c0 1.507 1.247 2.742 2.765 2.742a2.746 2.746 0 0 0 2.764-2.742 2.746 2.746 0 0 0-2.764-2.741z"/>
        <path d="M83.494 42H47.506C44.47 42 42 44.438 42 47.459v35.828c0 3.021 2.47 5.459 5.506 5.459h30.456l-1.424-4.902 3.438 3.153 3.25 2.968L89 95V47.459C89 44.438 86.53 42 83.494 42zM73.127 76.609s-.966-1.14-1.772-2.146c3.518-.981 4.861-3.154 4.861-3.154a15.448 15.448 0 0 1-3.089 1.564 17.857 17.857 0 0 1-3.894 1.139c-2.578.477-4.942.344-6.956-.027a22.775 22.775 0 0 1-3.948-1.139c-.618-.238-1.289-.53-1.96-.901-.081-.053-.162-.08-.242-.132a.37.37 0 0 1-.108-.08c-.483-.265-.752-.45-.752-.45s1.29 2.12 4.7 3.127c-.805 1.007-1.799 2.199-1.799 2.199-5.935-.185-8.191-4.028-8.191-4.028 0-8.533 3.867-15.45 3.867-15.45 3.867-2.861 7.547-2.782 7.547-2.782l.268.318c-4.834 1.378-7.063 3.472-7.063 3.472s.59-.319 1.585-.769c2.873-1.245 5.156-1.59 6.096-1.67.161-.026.296-.053.457-.053a23.028 23.028 0 0 1 5.425-.052 22.104 22.104 0 0 1 8.084 2.543s-2.122-1.987-6.688-3.365l.376-.424s3.68-.08 7.547 2.783c0 0 3.868 6.916 3.868 15.449 0 0-2.283 3.842-8.219 4.028z"/>
    </g>
</svg>
