<svg xmlns="http://www.w3.org/2000/svg" width="130" height="130" viewBox="0 0 130 130">
    <path fill="#000" fill-rule="evenodd" d="M56.874 87.53c19.623 0 30.356-16.799 30.356-31.367 0-.477 0-.952-.031-1.425a22.123 22.123 0 0 0 5.322-5.707 20.761 20.761 0 0 1-6.127 1.735c2.227-1.378 3.894-3.545 4.69-6.098a20.967 20.967 0 0 1-6.775 2.676c-3.307-3.634-8.561-4.523-12.817-2.17-4.257 2.354-6.455 7.366-5.364 12.225-8.578-.445-16.57-4.631-21.988-11.519-2.831 5.038-1.385 11.482 3.303 14.717a10.33 10.33 0 0 1-4.842-1.38v.14c.002 5.248 3.581 9.767 8.56 10.807-1.571.442-3.22.507-4.818.189 1.398 4.49 5.403 7.567 9.968 7.656-3.778 3.068-8.445 4.733-13.25 4.728a21.026 21.026 0 0 1-2.54-.159c4.88 3.235 10.556 4.952 16.353 4.944"/>
</svg>
