<svg xmlns="http://www.w3.org/2000/svg" width="130" height="130" viewBox="0 0 130 130">
    <path fill="#000" fill-rule="evenodd" d="M79.788 62.163c-8.058-4.786-21.35-5.226-29.044-2.89a2.338 2.338 0 1 1-1.357-4.476c8.83-2.68 23.511-2.163 32.788 3.345a2.338 2.338 0 0 1-2.387 4.021m-.264 7.088a1.95 1.95 0 0 1-2.68.642c-6.72-4.13-16.964-5.326-24.912-2.913a1.952 1.952 0 0 1-2.433-1.298 1.952 1.952 0 0 1 1.3-2.431c9.08-2.756 20.368-1.421 28.084 3.32a1.95 1.95 0 0 1 .641 2.68m-3.059 6.808a1.557 1.557 0 0 1-2.142.518c-5.87-3.588-13.26-4.398-21.962-2.41a1.558 1.558 0 1 1-.694-3.038c9.523-2.176 17.692-1.24 24.281 2.787.735.449.966 1.408.517 2.143M65 40c-13.807 0-25 11.193-25 25 0 13.808 11.193 25 25 25s25-11.192 25-25c0-13.807-11.193-25-25-25"/>
</svg>
