<svg xmlns="http://www.w3.org/2000/svg" width="130" height="130" viewBox="0 0 130 130">
    <path fill="#000" fill-rule="evenodd" d="M64.303 88a7.44 7.44 0 0 1-.367-.01c-.078.007-.159.01-.24.01-2.843 0-4.668-1.317-6.433-2.591-1.22-.88-2.369-1.71-3.724-1.94a11.775 11.775 0 0 0-1.955-.168c-1.146 0-2.05.18-2.71.312-.4.08-.747.149-1.01.149-.274 0-.572-.06-.701-.512a16.45 16.45 0 0 1-.272-1.136c-.202-.943-.345-1.522-.732-1.583-4.51-.711-5.8-1.681-6.089-2.37a.904.904 0 0 1-.07-.294.516.516 0 0 1 .425-.54c6.934-1.166 10.043-8.4 10.172-8.708l.01-.025c.425-.878.508-1.64.249-2.265-.476-1.145-2.028-1.648-3.055-1.98-.251-.082-.49-.159-.678-.234-2.05-.828-2.22-1.677-2.14-2.11.138-.737 1.103-1.251 1.884-1.251.214 0 .403.038.561.114.922.441 1.753.664 2.47.664.99 0 1.423-.425 1.476-.48-.025-.48-.056-.98-.088-1.496-.207-3.347-.463-7.505.574-9.879 3.108-7.115 9.7-7.668 11.645-7.668L64.36 42h.115c1.95 0 8.556.554 11.665 7.673 1.038 2.375.781 6.537.574 9.88l-.008.146c-.029.466-.057.919-.08 1.352.05.051.447.443 1.346.478.683-.027 1.468-.25 2.329-.661.252-.12.532-.146.723-.146.291 0 .587.058.832.162l.015.007c.696.252 1.152.75 1.162 1.27.009.491-.358 1.228-2.156 1.954a11.3 11.3 0 0 1-.677.233c-1.028.333-2.58.836-3.055 1.98-.26.625-.177 1.387.247 2.265.004.009.009.017.012.026.129.307 3.235 7.54 10.171 8.707a.517.517 0 0 1 .425.54c-.006.1-.03.2-.07.297-.287.683-1.577 1.652-6.088 2.363-.369.058-.512.549-.732 1.577-.08.374-.16.742-.272 1.128-.096.336-.3.493-.645.493h-.056c-.24 0-.58-.044-1.01-.13-.764-.153-1.62-.293-2.71-.293-.636 0-1.295.056-1.956.168-1.354.23-2.503 1.059-3.72 1.937C68.973 86.683 67.148 88 64.304 88"/>
</svg>
